<?xml version="1.0" encoding="UTF-8"?>
<svg id="b" data-name="Layer 2" xmlns="http://www.w3.org/2000/svg" xmlns:xlink="http://www.w3.org/1999/xlink" viewBox="0 0 368.23 100" height="100">
  <defs>
    <clipPath id="d">
      <rect y="33.55" width="50.65" height="50" style="fill: none; stroke-width: 0px;"/>
    </clipPath>
  </defs>
  <g id="c" data-name="Layer 1">
    <g>
      <path d="m362.92,54.77c-.71.12-1.5,0-2.24.04-.02-.16-.04-.29-.06-.44-.12-.03-.22-.05-.36-.09-.04-.27-.09-.54-.13-.82-.11-.03-.21-.05-.34-.09-.03-.25-.06-.51-.09-.8-.1-.04-.21-.08-.36-.14-.04-.25-.08-.52-.12-.81-.1-.03-.21-.05-.35-.09-.03-.25-.05-.51-.08-.78-.11-.04-.22-.08-.34-.13-.03-.26-.07-.5-.1-.78-.11-.04-.23-.09-.38-.15-.03-.25-.05-.49-.08-.77-.11-.03-.23-.06-.36-.1-.04-.27-.08-.55-.12-.83-.12-.03-.24-.07-.37-.1-.03-.28-.05-.54-.08-.82-.12-.03-.23-.06-.36-.09-.04-.27-.07-.53-.11-.81-.1-.03-.21-.06-.34-.1-.03-.26-.07-.54-.11-.83-.11-.02-.23-.05-.36-.07-.03-.29-.06-.56-.08-.85-.14-.03-.26-.05-.42-.08-.03-.24-.05-.48-.08-.75-.1,0-.19-.01-.33-.02-.06,3.79,0,7.51-.02,11.3-.46.08-.87.07-1.27-.07-.09-.34-.13-11.53-.04-12.14.27-.03.38-.22.38-.48.58-.07,1.14-.01,1.74-.03.04.14.07.25.11.39.11.02.23.04.35.07.05.27.1.52.15.8.49.05.29.58.45.92.1.03.21.06.32.09.11.34-.08.83.46.94.05.27.09.53.14.8.11.03.21.07.33.1.09.34-.05.8.45.89.05.28.1.53.14.77.12.06.23.12.33.18.08.34-.1.79.44.88.09.35-.02.8.48.91.1.34-.1.82.45.91.07.37-.03.8.46.91.13.34-.11.83.45.91.09.31.04.63.28.85.24-.19.2-.54.23-.82,0-3.34,0-6.67,0-10.01.24-.08.49-.13.48-.43.39-.08.7-.03.88.35v12.3Z" style="stroke-width: 0px;"/>
      <path d="m187.29,68.12c-.11-.03-.22-.05-.35-.08-.02-.27-.05-.54-.08-.84-.12-.03-.24-.05-.37-.08-.03-.28-.06-.56-.09-.85-.12-.03-.24-.06-.36-.09-.03-.29-.05-.56-.08-.86-.12,0-.23-.01-.32-.02-.15,2.98-.05,6.06-.11,9.07-.3.1-1.59.12-2.19.04-.1-.34-.1-11.79,0-12.24h3.05c.03.12.06.23.1.37.11.03.23.05.37.09.03.25.06.51.09.79.12.03.23.05.36.08.03.29.06.56.1.86.12.03.24.05.37.08.02.28.04.54.06.82.11.03.23.07.37.11.03.26.06.53.09.83.11.03.22.07.37.11.02.28.05.55.07.83.13.04.24.08.35.11.15.4-.05,1.21.51,1.24.03.29.06.57.09.86.12.03.23.06.36.09.03.28.05.55.08.84.14.03.26.05.4.08.02.28.04.55.06.86h.41v-9.06h2.21c.09.33.11,11.76.02,12.26h-3.1c-.03-.12-.06-.24-.09-.38-.11-.02-.22-.04-.36-.07-.02-.28-.05-.56-.07-.85-.13-.03-.25-.05-.4-.09-.02-.27-.04-.55-.06-.85-.11-.03-.23-.05-.38-.09-.02-.27-.04-.54-.07-.82-.11-.03-.22-.06-.34-.1-.04-.27-.07-.54-.11-.82-.12-.04-.23-.08-.36-.13-.02-.21-.03-.42-.07-.63-.05-.26-.03-.58-.42-.62-.04-.29-.08-.57-.11-.86Z" style="stroke-width: 0px;"/>
      <path d="m126.76,65.31c.58-.05.35-.76.42-1.15.02-.25.03-.5.32-.63.24-.32.12-.88.2-1.33,1.32-.26,2.66-.19,4-.06.02.3.04.57.07.87.11.04.22.08.37.13.03.41.05.82.08,1.26.35.1.41.38.42.7.02.33.05.66.07,1.01.13.06.24.1.37.16.02.4.05.82.07,1.24.12.04.22.07.36.11.02.42.04.85.06,1.29.16.05.22.07.4.11.02.41.05.83.07,1.27.11.03.22.07.33.1.11.29.07.64.09.95,0,.26.04.44.38.45.05.43.1.83.11,1.25.01.26.08.46.41.47v.85c-.29.09-1.54.11-2.22.04-.02-.11-.05-.22-.09-.37-.1-.03-.21-.06-.35-.1-.03-.44-.06-.87-.09-1.32-.62-.1-.36-.88-.41-1.33-1.43-.15-2.88-.05-4.32-.06-.65.02-.67.18-.71.7-.04.35,0,.71-.08,1.06-.11.04-.22.08-.35.13-.03.42-.06.83-.09,1.28-.89.08-1.76.07-2.65.02v-.4c.11-.04.21-.09.35-.14.05-.52.1-1.05.15-1.58.14-.06.25-.1.37-.15.02-.4.04-.8.07-1.22.11-.04.22-.09.37-.14.03-.41.06-.84.09-1.27.14-.05.26-.08.39-.13.02-.42.04-.84.06-1.27.11-.03.22-.07.36-.11.02-.4.05-.81.07-1.26.1-.04.21-.09.36-.16.03-.38.07-.8.11-1.28Zm2.21-.02v1.34c-.16.05-.28.09-.42.14-.02.41-.03.81-.05,1.21-.02.25-.03.52-.39.53-.01.18-.03.28.02.45h3.13c-.05-.47.21-1.24-.39-1.38-.02-.45-.04-.88-.06-1.29-.15-.05-.26-.1-.4-.15-.02-.37-.04-.73-.05-1.09-.01-.3-.05-.58-.4-.65-.02-.16-.05-.29-.07-.45-.16.01-.29.02-.46.03,0,.29,0,.53,0,.78,0,.26-.03.52-.45.53Z" style="stroke-width: 0px;"/>
      <path d="m78.41,63.47c.12.04.22.08.37.13.02.4.05.82.08,1.26.37.06.42.36.44.67.02.34.04.69.06,1.04.13.05.23.09.34.12.2.41-.2,1.34.46,1.39.03.44.06.86.1,1.29.12.04.24.07.37.11.02.43.04.84.06,1.27.12.05.23.09.37.14.03.41.06.82.1,1.25.11.03.21.06.36.11.03.4.05.81.08,1.26.38.16.46.47.38.92-.86.03-1.73.06-2.64-.03-.02-.43-.04-.85-.06-1.28-.37-.09-.44-.39-.44-.73,0-.35-.03-.69-.05-1.06-1.64-.22-3.3-.09-4.95-.05-.02.42-.05.82-.07,1.24-.12.04-.23.08-.39.13v1.27c-.14.06-.24.09-.36.14-.03.1-.06.22-.09.36h-2.25v-.86c.12-.04.22-.08.35-.13.03-.35.05-.71.08-1.06.03-.27.01-.58.45-.63,0-.29-.02-.57,0-.84.03-.25,0-.57.4-.55.04-.45.07-.87.1-1.29.12-.03.23-.06.37-.1.02-.42.04-.85.07-1.29.12-.04.24-.08.38-.13.03-.41.06-.82.1-1.26.62-.05.31-.92.42-1.36.11-.05.23-.09.37-.15.03-.41.05-.82.08-1.26.6-.12.4-.89.43-1.35,1.37-.14,2.69-.16,4.05.02.03.44.05.85.08,1.3Zm-3.17,2.81c-.02.44-.04.87-.06,1.28-.48.16-.52.84-.38,1.39h3.12c-.02-.29-.04-.54-.06-.8-.13-.05-.23-.09-.34-.13-.02-.44-.04-.86-.06-1.29-.14-.05-.25-.09-.38-.13-.07-.45.08-1.01-.21-1.37-.43-.31-.25-.83-.31-1.3-.17.01-.3.02-.43.03-.09.37.05.8-.46.91-.02.45-.04.87-.06,1.29-.14.04-.24.07-.36.11Z" style="stroke-width: 0px;"/>
      <path d="m101.63,61.72h2.2c.12.48.15,8.33.05,9.95-.57.19-.38.86-.49,1.33-.12.03-.24.07-.37.1-.01.13-.03.25-.04.4-.13.01-.25.03-.39.04-.03.15-.05.28-.07.41-.26.04-.51.07-.77.1-.04.11-.09.22-.15.39-.37,0-.74-.02-1.12,0-.25.02-.54-.02-.69.28-.34.2-.86.04-1.26.09-.26,0-.47-.06-.55-.36-.47-.02-.92-.03-1.38-.06-.3-.03-.3-.04-.42-.38-.12-.02-.26-.04-.42-.06-.03-.12-.06-.25-.09-.4-.12-.02-.24-.04-.38-.06-.02-.12-.05-.24-.07-.38-.11-.02-.23-.05-.38-.08-.02-.26-.05-.54-.08-.83-.12-.03-.23-.06-.34-.09-.13-.71-.14-9.8,0-10.39h2.17c.14,3.15-.05,6.3.09,9.46.12.03.23.06.35.09.02.13.04.26.07.42.1.03.22.07.36.11.03.1.08.21.12.34h3.12c.03-.13.06-.24.1-.38.11-.02.23-.05.36-.08.07-.32-.07-.85.33-.95.05-.01.1-.13.11-.2.11-2.94.01-5.87.05-8.81Z" style="stroke-width: 0px;"/>
      <path d="m174.63,68.42c.14.04.24.07.37.11.02.42.05.83.07,1.25.13.05.25.09.4.14.02.41.05.84.07,1.29.12.03.24.06.37.09.02.43.04.84.06,1.27.13.04.24.08.39.13.03.43.06.86.09,1.27.11.12.38,0,.34.24-.01.08-.21.14-.33.19-.75.1-1.54.05-2.3,0-.02-.29-.04-.56-.06-.86-.39-.05-.39-.36-.41-.65-.02-.36-.03-.72-.05-1.08-.13-.05-.24-.08-.36-.13-.02-.13-.05-.26-.07-.39-.31-.09-4.01-.12-4.53-.03-.02.25-.05.51-.08.78-.11.05-.23.09-.37.15-.03.41-.06.84-.08,1.28-.12.05-.24.09-.36.13-.03.26-.05.51-.07.75-.31.1-1.77.12-2.24.03v-1.27c.15-.05.26-.09.39-.13.02-.41.05-.81.07-1.24.61-.18.39-.87.46-1.35.02-.26.04-.51.39-.51.04-.44.07-.85.11-1.26.15-.07.27-.11.38-.16.02-.41.04-.82.06-1.24.12-.04.23-.08.37-.13.02-.41.04-.82.06-1.25.12-.05.24-.09.38-.14.03-.4.07-.82.1-1.25.11-.04.22-.08.37-.13.02-.4.05-.82.07-1.26.53-.1.36-.59.48-.95,1.18-.12,2.36-.07,3.56-.03.03.17.05.3.08.45.1.04.22.08.35.13.03.41.06.82.09,1.26.12.04.24.07.37.11.02.42.05.83.07,1.26.11.04.21.07.31.1.13.27.08.61.13.91.02.2-.02.38.24.52.31.38.19,1.08.25,1.6Zm-5.05.56c.91,0,1.76.02,2.65-.02.14,0,.39,0,.4-.2,0-.1-.17-.21-.3-.36-.02-.36-.05-.79-.08-1.24-.29,0-.38-.16-.38-.4-.08-.48.18-1.31-.44-1.46-.02-.45-.04-.87-.07-1.32h-.45c.03.31-.23.34-.41.42-.02.46-.04.88-.07,1.29-.16.06-.27.1-.4.15-.01.39-.03.76-.04,1.14-.01.28-.03.56-.42.61v1.39Z" style="stroke-width: 0px;"/>
      <path d="m83.45,62.14h2.25c.02,1.69,0,3.26,0,4.97h1.29q.15-.74.49-.89c.02-.12.03-.26.05-.41.12-.03.24-.05.38-.08.02-.27.06-.49.16-.75.1-.03.22-.07.34-.11.02-.15.03-.28.05-.44.13-.02.25-.04.36-.05.06-.27.11-.51.16-.75.13-.06.24-.11.36-.16.01-.13.03-.25.04-.4.12-.02.24-.05.35-.07.14-.61.02-.88.83-.88.64-.01,1.28,0,1.92,0,.13.3.01.54-.05.8-.12.04-.24.09-.36.13-.01.13-.03.25-.04.4-.12.02-.23.05-.36.07-.04.27-.08.53-.12.8-.12.03-.22.05-.35.08-.03.14-.06.29-.09.45-.12.02-.24.05-.37.07-.04.24-.07.48-.11.73-.11.04-.22.07-.36.12-.02.12-.05.25-.08.41-.12.03-.24.06-.38.09-.04.26-.07.5-.11.76-.12.04-.23.08-.35.13-.01.13-.03.25-.04.38-.13.02-.25.04-.4.07v.79c.14.04.26.07.39.11.02.13.04.26.06.42.11.03.22.06.36.09.03.24.06.49.1.75.12.03.24.06.37.09.02.14.05.27.07.43.12.03.23.06.37.09.03.26.07.52.1.8.12.02.24.04.36.06.07.21-.02.52.34.54.17.16.15.51.22.76.11.02.22.04.33.06.06.28.11.53.17.79.12.04.22.07.34.1.02.14.03.28.05.44.12.03.24.05.38.08,0,.1.01.21.02.37-.9.06-1.79.04-2.68.01-.03-.15-.06-.27-.08-.4-.12-.02-.24-.04-.35-.06-.14-.33.05-.79-.47-.9-.02-.13-.03-.27-.05-.43-.13-.03-.26-.06-.4-.09-.03-.25-.06-.49-.1-.76-.12-.03-.24-.06-.36-.09-.02-.15-.04-.28-.06-.43-.12-.03-.24-.06-.38-.09-.04-.26-.08-.52-.12-.8-.12-.02-.23-.04-.37-.07-.02-.15-.03-.28-.05-.44-.51-.07-.37-.52-.48-.85h-1.29v5.42c-.78.03-1.51.02-2.24,0-.09-.31-.12-11.7-.03-12.29Z" style="stroke-width: 0px;"/>
      <path d="m164.04,73.04c-.13.03-.23.05-.36.07-.02.13-.03.25-.05.4-.19.1-.44.15-.42.46-.16.02-.29.05-.44.07-.03.1-.05.21-.09.37-2.51.07-5.04.04-7.55.03-.12-.34-.14-1.23-.05-1.79,1.91-.11,3.85-.02,5.77-.05q.26-.36.91-.55c.11-.53.07-1.07.03-1.63-.12-.03-.23-.06-.37-.1-.02-.12-.05-.26-.07-.4-.36-.09-.74.05-1-.27-.41-.35-1.09-.18-1.6-.21-.06-.17-.09-.28-.14-.42-.41-.02-.82-.05-1.25-.08-.03-.14-.06-.26-.09-.39-.31-.11-.97.07-.85-.45-.16-.04-.29-.07-.43-.1-.05-.21-.01-.44-.32-.52-.26-.23-.21-.83-.23-1.2-.11-.05-.22-.1-.36-.16v-1.65c.56-.21.34-.9.38-1.37.16-.03.27-.06.42-.09.02-.11.05-.22.09-.37.12-.03.25-.06.4-.09.03-.11.06-.23.09-.36,2.54-.22,5.07-.06,7.66-.1.02.64,0,1.23,0,1.86h-5.88c-.04.16-.07.28-.1.39-.13.03-.25.05-.39.08v1.78c.14.03.27.05.42.08.02.13.04.24.06.39.45.08,1.2-.15,1.31.46.43.02.84.04,1.28.06.04.11.08.22.13.35.41.04.82.07,1.23.11.05.15.09.26.14.39.13.01.25.02.4.04.03.11.06.22.09.35.2.1.39,0,.45.31.03.11.2.18.37.31,0,.06.03.19.05.35.12.03.23.06.34.08.11.55.13,2.8.03,3.55Z" style="stroke-width: 0px;"/>
      <path d="m143.08,72.57c.04-.16.06-.26.09-.38.13-.02.25-.03.4-.05v-1.82c-.23-.06-.44-.14-.42-.43-.3-.03-.57-.06-.86-.09-.03-.11-.07-.21-.11-.35-.43-.02-.86-.04-1.3-.07-.05-.11-.09-.23-.15-.36-.39-.03-.79-.06-1.21-.09-.03-.12-.07-.23-.11-.37-.26-.04-.52-.07-.8-.11-.02-.11-.05-.23-.08-.37-.12-.02-.24-.03-.38-.05-.02-.13-.05-.26-.08-.41-.13-.02-.24-.05-.37-.07-.02-.23-.02-.45-.28-.56-.1-.04-.18-.26-.18-.4-.01-1.01,0-2.03,0-3.06.16-.04.27-.06.38-.08.06-.25.11-.48.18-.74.23-.07.47-.13.74-.21.02-.08.05-.2.09-.34,2.55-.17,5.09-.08,7.69-.06.03.61.02,1.17,0,1.79-2.1.12-4.18.02-6.29.05-.01.31-.06.55-.38.56-.17.4-.14.8-.11,1.23.48.09.4.52.52.88.38.04.78.09,1.2.13.04.1.08.21.13.36.4.02.82.04,1.26.06.19.6.9.35,1.38.4.04.16.07.28.1.42.25.03.51.07.77.1.03.13.05.25.08.38.13.02.25.03.4.05.02.14.04.27.06.42.12.03.24.05.36.07.2.43-.13,1.22.51,1.33,0,.59.02,1.16,0,1.73-.01.22,0,.52-.38.49-.03.31-.06.59-.08.88-.13.03-.25.06-.39.09-.02.13-.03.25-.05.39-.23.04-.46.07-.71.11-.06.11-.13.23-.2.36h-7.22v-1.81c1.93-.05,3.87.02,5.84-.04Z" style="stroke-width: 0px;"/>
      <path d="m202.34,67.62c.03.15.05.27.08.4.27.04.53.07.81.11.03.13.05.24.08.37.14.02.26.04.41.06.05.26.09.51.14.78.11.03.21.06.33.09.16,1.33.15,2.65-.03,4-.12.04-.24.07-.36.1-.02.13-.04.26-.06.41-.26.03-.51.07-.8.11-.03.1-.07.21-.12.36-2.4.07-4.8.02-7.26.04-.03-.62-.04-1.21.01-1.85h5.84c.04-.16.08-.28.11-.4.14-.02.26-.04.38-.05.1-.32.11-1.25.03-1.79-.11-.02-.23-.04-.35-.06-.03-.13-.06-.25-.09-.39-.31-.03-.55-.05-.86-.08-.02-.34-.28-.36-.53-.38-.43-.11-1.3.22-1.3-.46-.5-.05-1.22.2-1.37-.45-.16-.01-.29-.03-.45-.04-.02-.12-.04-.24-.07-.38-.25-.01-.48-.02-.51-.35,0-.06-.2-.11-.34-.18-.02-.11-.03-.23-.06-.37-.11-.03-.22-.06-.39-.1-.07-1.12-.08-2.27-.02-3.4.02-.45.08-.53.43-.67.02-.11.04-.23.06-.37.26-.05.51-.11.78-.16.03-.1.07-.2.1-.31,2.29-.21,4.62-.09,6.92-.11.39,0,.44.05.45.43,0,.47.04.94-.08,1.46h-5.91c-.03.17-.04.28-.06.42-.14.02-.26.03-.4.05v1.75c.13.03.24.05.39.08.03.12.06.25.09.39.42.04.84.08,1.25.12.04.12.07.22.12.36.4.02.82.04,1.25.06.04.11.09.22.15.36.39.03.79.05,1.22.08Z" style="stroke-width: 0px;"/>
      <path d="m62.44,74.43v-12.28c.19-.08.47-.03.53-.32.09-.12.32-.09.47-.09,2.06,0,4.12,0,6.19,0,.22,0,.43-.03.55.25.04.1.25.12.42.19v1.75c-1.81.06-3.6,0-5.39.04-.15,1-.17,2.73-.02,3.19h4.51v1.84c-1.51.06-2.94,0-4.46.02-.31,1.76-.08,3.53-.14,5.32-.89.21-1.75.09-2.65.1Z" style="stroke-width: 0px;"/>
      <path d="m123.49,63.97h-3.58c-.12,3.48-.02,6.95-.05,10.43-.16.04-.28.06-.41.09-.04.11-.08.21-.12.33h-1.64c-.05-.12-.1-.23-.15-.34-.12-.02-.23-.05-.34-.07-.19-3.45.06-6.94-.1-10.41-1.18-.08-2.36,0-3.53-.05-.12-.41-.12-1.6,0-2.17.36-.1,9.44-.11,9.92-.01v2.21Z" style="stroke-width: 0px;"/>
      <path d="m330.01,42.11c.19,4.23.02,8.46.07,12.7h-2.26c-.02-.16-.04-.29-.06-.45-.12-.02-.24-.04-.36-.07-.03-.27-.05-.52-.08-.79-.11-.04-.24-.09-.38-.15-.03-.26-.07-.52-.1-.8-.11-.03-.22-.07-.34-.11-.03-.28-.05-.54-.08-.81-.13-.04-.24-.07-.36-.1-.03-.26-.07-.51-.1-.78-.11-.03-.23-.06-.37-.1-.03-.26-.05-.52-.08-.81-.1-.03-.22-.06-.36-.11-.03-.25-.07-.51-.11-.79-.1-.03-.22-.06-.38-.11-.02-.25-.05-.53-.08-.82-.12-.03-.23-.06-.35-.09-.03-.28-.05-.54-.08-.82-.12-.03-.23-.06-.39-.1-.03-.26-.06-.53-.09-.81-.11-.02-.22-.05-.36-.08-.02-.26-.05-.53-.08-.83-.12-.03-.23-.06-.39-.09-.03-.26-.05-.53-.08-.83-.12-.03-.25-.06-.39-.1-.08-.29.07-.93-.43-.72-.02,3.74,0,7.49-.01,11.31-.47-.02-.88-.05-1.34-.07-.12-4.07,0-8.13-.04-12.21.28-.05.43-.21.44-.49h1.75c.03.13.06.24.09.37.13.03.25.05.4.08.03.26.06.51.1.79.11.03.23.07.34.1.05.28.09.54.14.81.12.04.24.07.35.11.03.28.06.54.09.81.11.03.21.06.34.1.09.32-.08.94.45.89.05.28.09.54.14.81.11.04.22.08.33.12.13.32-.1.81.44.91.16.32-.08.82.49.92.08.34-.05.79.42.91.05.27.1.52.15.77.12.05.23.11.34.16.03.26.07.5.1.76.12.04.22.07.33.11.13.32-.09.83.48.92.03.28.07.53.1.81.48.25.34-.52.39-.79,0-3.34,0-6.67,0-10.01.25-.06.46-.16.49-.43h.79Z" style="stroke-width: 0px;"/>
      <path d="m80.68,51.16c.11.03.23.06.36.1.03.27.07.53.1.81.11.03.23.06.37.09.03.28.06.55.09.85.13,0,.25.01.42.02.12-3.49,0-6.97.04-10.46.26-.07.5-.13.44-.46h.81c.23,4.21.07,8.48.07,12.71h-2.22c-.05-.28-.1-.54-.15-.81-.11-.03-.21-.06-.31-.08-.16-.31.11-.82-.46-.9-.15-.32.07-.81-.47-.93-.03-.25-.06-.5-.1-.76-.12-.05-.23-.09-.34-.14-.05-.27-.1-.52-.15-.78-.13-.06-.24-.11-.34-.16-.03-.26-.07-.51-.1-.76-.13-.05-.24-.1-.35-.14-.07-.36.05-.8-.47-.89-.04-.27-.07-.52-.1-.78-.12-.05-.23-.1-.33-.14-.09-.34.05-.78-.44-.9-.17-.32.09-.84-.49-.92-.07-.37.03-.81-.45-.93-.07-.27-.04-.64-.3-.77-.16-.03-.2.12-.22.24-.17,3.21-.01,6.44-.07,9.65,0,.18,0,.34-.18.48-.1.08-.13.26-.2.42h-.86c-.25-1.15-.03-2.56-.1-3.77.05-2.99-.11-5.97.08-8.95h1.75c.04.11.07.21.11.34.1.03.22.06.36.1.02.13.04.26.06.43.1.03.22.07.35.11.04.26.07.52.11.8.1.03.21.07.37.13.03.24.06.5.09.78.1.03.22.07.35.11.03.26.05.52.08.81.11.03.22.07.37.12.04.25.07.53.12.82.11.02.22.05.36.08.03.27.05.53.08.8.12.04.23.08.37.12.03.26.07.52.1.8.1.03.22.07.36.11.02.24.05.48.08.76.1.04.21.08.35.12.03.25.06.51.1.79.1.03.21.07.38.13.03.25.05.52.08.81Z" style="stroke-width: 0px;"/>
      <path d="m213.81,42.95c.13.02.25.03.4.05.02.13.04.27.07.42.12.03.24.06.37.1.04.25.07.5.11.77.1.03.22.07.38.12.02.56.05,1.12.08,1.72.37.1.38.42.38.73,0,1.25,0,2.51,0,3.78-.35.09-.4.34-.4.63,0,.4,0,.81,0,1.22-.15.06-.26.1-.4.16-.04.24-.08.5-.12.79-.11.03-.23.06-.36.1-.02.11-.05.23-.08.37-.11.02-.23.05-.36.08-.03.12-.05.23-.08.36-.14.02-.26.03-.41.05-.03.13-.06.25-.1.4-.47.03-.92.07-1.38.07-.25,0-.4.09-.44.36h-1.74c-.05-.35-.32-.36-.59-.37-.39-.02-.78-.03-1.19-.05-.03-.14-.06-.27-.09-.41-.15-.02-.28-.03-.44-.05-.02-.12-.04-.22-.06-.35-.11-.02-.23-.05-.37-.08-.02-.11-.05-.23-.08-.36-.12-.03-.23-.07-.34-.1-.05-.26-.09-.51-.14-.77-.33-.03-.38-.24-.36-.52.02-.3,0-.61,0-.94-.36-.05-.41-.29-.41-.55,0-1.46,0-2.92,0-4.39.12-.07.23-.12.37-.2.02-.54.05-1.1.08-1.67.12-.03.23-.07.37-.11.04-.24.07-.5.11-.78.11-.03.23-.06.36-.09.02-.13.04-.25.06-.4.13-.02.26-.05.4-.07.03-.12.06-.24.09-.37.27-.03.53-.06.82-.1.04-.1.09-.21.16-.38,1.42-.07,2.86-.07,4.3,0,.06.15.11.26.16.38.25.03.5.07.77.1.04.12.08.24.13.38Zm-6.45,3.61c-.14.07-.24.13-.36.2v3.43c.13.07.23.13.35.19.03.57.05,1.14.08,1.69.13.05.24.08.35.13.05.26.1.52.15.78.13.02.25.03.37.05.03.14.05.26.08.39.29.03.56.05.84.09.18.03.39.01.46.27.01.06.16.1.25.11.45.01.89,0,1.34,0,.13,0,.25-.02.3-.17.05-.17.19-.18.33-.2.32-.04.63-.08.96-.12.02-.13.04-.25.06-.37.15-.03.28-.06.39-.09.09-.36-.09-.82.49-.91-.01-.65.02-1.26.07-1.9,0-.1.04-.25.11-.29.2-.11.21-.28.22-.46.01-.58.02-1.17,0-1.75,0-.16-.02-.41-.12-.47-.31-.19-.24-.47-.26-.74-.04-.52-.06-1.05-.08-1.57-.15-.04-.26-.07-.36-.1-.03-.16-.05-.31-.08-.45-.13-.02-.24-.04-.34-.05-.03-.13-.06-.25-.09-.36-.16-.02-.29-.04-.42-.06-.04-.14-.07-.25-.11-.38-1.18-.07-2.34-.08-3.49,0-.04.16-.06.26-.09.38-.15.02-.28.03-.43.05-.03.13-.06.24-.09.35-.13.03-.23.05-.35.08-.02.15-.03.29-.05.43-.14.03-.27.06-.41.1-.02.58-.05,1.13-.07,1.71Z" style="stroke-width: 0px;"/>
      <path d="m119.44,54.82c-.03-.47-.05-.88-.07-1.31-.12-.04-.23-.09-.36-.14-.02-.42-.04-.84-.06-1.27-.61-.15-.37-.87-.45-1.34-.13-.05-.24-.1-.37-.15-.04-.24-.08-.48-.13-.76-1.2-.13-2.41-.12-3.62-.13-.43,0-.48.04-.48.48,0,1.34,0,2.68,0,4.01.08.87-.67.58-1.33.63-.06-4.25-.11-8.51.02-12.76,1.79-.08,3.57,0,5.36-.02.27.02.54.03.58.39.3.03.57.05.86.08.02.13.04.25.06.38.14.02.26.04.4.06.02.12.05.24.07.39.11.03.24.06.36.09.09.39.02.92.23,1.22.28.1.26.34.26.56,0,.57.06,1.14-.09,1.72-.1.04-.2.09-.32.14-.02.28-.04.57-.06.87-.12.02-.22.05-.36.07-.02.12-.05.25-.08.4-.13.03-.25.06-.38.09-.03.11-.06.23-.1.35-.26.03-.51.05-.78.08-.01.1-.03.19-.04.3.13.03.25.06.39.1.02.12.05.25.08.4.12.03.22.05.35.08.02.13.03.27.05.41.11.04.23.09.38.14.03.39.07.79.1,1.22.1.04.21.08.36.14.02.4.05.81.07,1.25.38.1.43.4.44.73,0,.37.08.71.02,1.09h-1.37Zm-.5-10.9c-.17-.03-.29-.04-.42-.06-.03-.13-.06-.25-.08-.36-.77-.12-4.15-.12-4.51,0-.1.5-.07,4.58.05,4.95,1.33-.02,2.67.05,4-.05.06-.16.1-.27.13-.36.29-.04.54-.08.76-.11.21-.49-.1-1.09.48-1.36v-1.66c-.13-.06-.24-.11-.34-.16-.02-.28-.04-.54-.06-.83Z" style="stroke-width: 0px;"/>
      <path d="m267.67,42.08c1.77-.06,3.56,0,5.33-.01.26.03.58-.04.54.39.33.03.6.06.88.08.03.13.06.25.1.38.12.02.23.03.36.05.03.11.05.23.09.38.1.03.22.06.37.1.03.27.05.54.08.84.34.05.4.3.39.6,0,.69,0,1.39,0,2.09-.14.05-.24.09-.37.14-.03.26-.06.54-.1.84-.25.04-.44.17-.42.48-.13.03-.23.06-.36.1-.03.1-.07.21-.11.32-.21.07-.42.06-.63.08-.12.01-.22.05-.21.2.02.21.23.13.38.19.03.12.05.24.08.37.12.04.24.07.37.11.02.13.03.25.05.4.12.04.24.08.39.12.02.41.05.81.07,1.22.11.04.23.09.37.14.03.4.06.81.09,1.25.11.04.22.08.38.14.02.39.04.81.07,1.24.14.04.33.12.35.27,0,.06-.08.15-.14.16-.53.08-1.01.1-1.55.01-.07-.42.04-1.03-.19-1.34-.3-.07-.29-.32-.31-.53-.12-.41.21-1.24-.42-1.28-.07-.51.13-1.18-.49-1.37-.02-.14-.03-.26-.05-.41-1.27-.13-2.53-.11-3.8-.15-.2,0-.28.08-.29.26,0,1.58,0,3.17,0,4.75-.37.15-.7.17-1.28.1-.11-.32-.12-12.17,0-12.74Zm1.31,1.35v5.02c1.37-.01,2.71.05,4.05-.04.05-.14.09-.26.13-.36.28-.04.54-.07.8-.11.03-.29.05-.55.08-.83.11-.05.23-.09.37-.15v-2.13c-.55,0-.33-.55-.44-.91-.13-.02-.25-.04-.38-.06-.03-.13-.05-.25-.09-.4-1.51-.08-3.01-.05-4.52-.03Z" style="stroke-width: 0px;"/>
      <path d="m297.27,42.11c.47-.04.86-.09,1.28.07.19,4.2.02,8.42.07,12.62h-1.37c0-1.67,0-3.32,0-4.98.04-.44-.08-.88-.59-.92-1.77-.03-3.54-.02-5.32.03-.14,1.89,0,3.82-.09,5.71-.42.25-.84.19-1.28.18-.11-.3-.08-.62-.09-.94.07-3.93-.15-7.87.1-11.79h.84c.03.13.07.26.1.41.09.04.2.08.31.13.13,1.6-.07,3.2.14,4.81,1.78.2,3.56.06,5.36.07.04-.13.07-.26.11-.4.12-.02.24-.04.4-.07.03-1.64-.02-3.26.03-4.92Z" style="stroke-width: 0px;"/>
      <path d="m113.01,72.61c.14.41.14,1.41,0,1.81h-7.62c-.1-.32-.13-11.71-.04-12.28.26.01.43-.11.48-.4.49,0,.96,0,1.44,0,.07,0,.16.06.2.11.2.26.2.26.5.37.04,3.44-.1,6.88.07,10.32,1.69.1,3.33,0,4.96.06Z" style="stroke-width: 0px;"/>
      <path d="m334.68,43.48c-.02.14-.04.24-.06.37-.13.02-.26.05-.41.07-.03.13-.05.24-.08.38-.13.02-.24.04-.38.06-.02.29-.04.57-.07.85-.11.04-.21.07-.37.13-.07,2.07-.04,4.16-.02,6.27.82.1.02,1.31.87,1.41.03.14.05.26.08.39.27.04.52.08.8.12.04.11.08.22.13.35h2.55c.06-.13.11-.24.16-.35.4-.05.79-.09,1.18-.13.17-.35.22-.71.21-1.09-.03-1.14.03-2.24-.03-3.38-.31-.02-.6-.04-.92-.06v-1.25c.33-.1,1.8-.12,2.25-.01v7.2h-.88c-.02-.13-.04-.25-.06-.4h-.45c-.06.37-.36.41-.65.43-.36.03-.72.03-1.09.05-.05.12-.09.22-.14.35h-1.68c-.05-.1-.1-.21-.15-.34-.43-.02-.84-.05-1.28-.07-.12-.42-.48-.45-.87-.47-.02-.13-.04-.24-.07-.39-.12-.02-.25-.04-.41-.07-.02-.14-.04-.27-.06-.43-.61-.06-.37-.87-.46-1.3-.14-.04-.25-.08-.39-.12-.09-2.16,0-4.32-.03-6.48,0-.12.03-.25.05-.37.06-.27.06-.27.38-.4.02-.26.04-.53.06-.83.12-.03.23-.06.37-.09.02-.12.04-.26.06-.41.24-.05.44-.14.43-.45.14-.03.25-.06.39-.09.03-.12.05-.24.07-.35.28-.05.54-.09.81-.13.04-.11.08-.21.12-.33h4.92c.04.14.07.24.11.36.11.03.23.06.37.09v.79c-1.78.3-3.55-.13-5.39.14Z" style="stroke-width: 0px;"/>
      <path d="m184.24,54.01c.13-.04.23-.07.36-.1.03-.4.06-.8.09-1.2.13-.05.24-.1.4-.16.03-.28-.09-.73.11-.94.33-.1.32-.39.35-.64.02-.22,0-.44,0-.67.15-.04.25-.07.39-.11.03-.39.06-.79.09-1.22.1-.04.21-.08.34-.14.04-.41.08-.82.12-1.25.12-.04.23-.08.36-.13.03-.41.05-.81.08-1.23.12-.03.24-.07.37-.1.04-.42.08-.84.11-1.26.12-.03.22-.06.37-.09.03-.4.05-.82.08-1.24.13-.04.25-.08.38-.12.03-.3.05-.58.08-.89.26-.02.44-.12.44-.41h1.74c.03.12.06.23.1.38.1.03.21.07.36.12.02.4.05.81.07,1.25.13.03.24.06.37.1.04.42.07.82.11,1.24.12.04.23.07.37.12.03.41.06.82.08,1.25.12.05.24.09.37.14.04.4.08.79.12,1.21.12.05.23.09.39.15,0,.24-.02.49,0,.73.02.26.04.54.4.58.07.37-.13.88.3,1.06.26.24.19.83.19,1.19.14.06.25.1.4.16.03.39.06.79.09,1.21.11.04.22.08.37.14.04.4.07.81.11,1.22.12.12.45.03.34.38-.37.17-.77.13-1.17.12-.07,0-.17-.07-.19-.13-.05-.14-.14-.22-.28-.29-.21-.18-.1-.53-.14-.78,0-.07-.04-.19-.09-.21-.47-.22-.29-.88-.32-1.31-.62-.22-.41-.85-.5-1.36h-5.43c-.08.29.04.71-.32.83-.07.02-.14.16-.15.25-.03.22-.02.45-.04.67-.04.36-.05.36-.39.54-.03.39-.05.79-.08,1.21-.12.04-.23.09-.36.13-.02.13-.03.26-.05.43h-1.37c.03-.28.06-.54.09-.8Zm4.97-10.55c-.03.43-.06.82-.09,1.19-.14.06-.25.11-.4.18,0,.25.02.5,0,.75-.02.27-.03.57-.39.61-.04.43-.08.83-.11,1.21-.14.06-.25.11-.39.17-.04.5.19,1.18-.45,1.38,0,.15.02.27.03.42,1.29.07,2.57.03,3.86.03.24-.03.29-.09.28-.32-.07-.35.03-.83-.18-1.12-.5-.27-.29-.84-.34-1.3-.66-.19-.37-.89-.43-1.4-.43-.04-.44-.36-.47-.65-.03-.23,0-.47,0-.7l-.08.03c-.15-.14-.3-.29-.49-.48h-.33Z" style="stroke-width: 0px;"/>
      <path d="m348.22,42.19c.07.39.13.75.2,1.13.56.03.28.69.41,1.06.01.08.04.2.09.23.49.24.26.69.35,1.09.59.15.36.88.41,1.34.14.05.25.08.4.13.03.4.05.81.08,1.24.11.04.23.09.38.15.03.38.07.78.1,1.21.1.03.21.07.37.11.02.4.05.81.07,1.25.12.04.24.07.4.12.03.4.06.81.08,1.24.12.04.23.08.36.12.03.41.05.81.08,1.22.13.05.24.09.38.14v.84h-1.3c-.03-.27-.05-.54-.08-.84-.11-.03-.22-.06-.36-.1-.03-.42-.05-.83-.08-1.25-.14-.04-.25-.08-.4-.12-.02-.42-.05-.83-.07-1.26-.12-.03-.22-.06-.35-.09-.02-.11-.04-.23-.07-.4-1.78-.02-3.57-.02-5.39,0-.04.45-.08.86-.12,1.29-.12.03-.24.06-.37.1-.02.43-.04.84-.07,1.26-.14.05-.25.08-.38.12-.04.41-.07.81-.11,1.23-.43.13-.86.07-1.27.08-.15-.41-.03-.85-.06-1.28.17-.07.29-.13.44-.2.03-.39.06-.79.09-1.22.1-.03.22-.07.35-.11.02-.4.05-.8.07-1.23.12-.03.23-.07.37-.11.04-.41.07-.83.11-1.26.11-.04.23-.08.37-.13.03-.4.05-.81.08-1.23.13-.04.23-.07.37-.11.04-.4.07-.81.11-1.24.12-.04.24-.07.4-.12.06-.47-.22-1.21.43-1.36.04-.49-.19-1.17.46-1.35v-.9c.52-.1.42-.55.54-.91.69.02,1.39-.1,2.1.11Zm.97,6.34c-.16-.06-.27-.11-.38-.15-.03-.44-.05-.86-.08-1.26-.14-.04-.25-.07-.36-.1-.04-.43-.07-.84-.11-1.25-.14-.04-.25-.08-.37-.12-.02-.43-.05-.85-.07-1.28-.14-.04-.25-.07-.37-.1-.03-.29-.06-.56-.09-.86-.15,0-.27.02-.4.02-.02.15-.04.27-.06.41-.12.03-.24.06-.36.08-.03.44-.05.85-.08,1.25-.15.04-.27.08-.4.12-.03.44-.05.87-.07,1.29-.15.03-.25.06-.38.09-.02.42-.05.84-.07,1.26-.15.04-.26.07-.42.11v1.28c.4.11,3.73.1,4.11-.02-.02-.25-.03-.51-.05-.78Z" style="stroke-width: 0px;"/>
      <path d="m311.34,52.04c-.14.03-.25.06-.38.09-.03.42-.07.84-.1,1.27-.12.04-.24.07-.37.12-.03.42-.05.83-.08,1.28h-1.31c-.08-.41.06-.85.01-1.29.15-.05.26-.08.39-.13.03-.42.05-.82.08-1.24.12-.04.23-.07.39-.12.03-.4.05-.81.08-1.24.12-.03.22-.06.36-.1.02-.41.05-.83.07-1.27.11-.04.22-.07.38-.12.03-.39.07-.81.11-1.24.12-.04.24-.07.37-.11.03-.41.05-.81.08-1.23.13-.04.24-.07.37-.11.04-.41.08-.82.12-1.24.13-.06.25-.1.4-.17.04-.44-.17-1.13.38-1.31.09-.38.01-1.03.27-1.28.29-.05.26-.28.29-.53.54-.03,1.08-.03,1.61-.01.4.01.57.19.61.59.02.22.03.41.07.64.11.05.22.09.34.15.04.39.09.79.13,1.18.13.07.24.12.36.18.02.3.03.59.05.9.61.04.37.9.47,1.33.63.07.37.92.42,1.35.15.06.26.11.4.16.03.4.05.8.08,1.21.12.04.24.07.38.11.03.42.06.83.1,1.26.12.03.24.06.37.1.02.41.05.82.07,1.23.13.05.26.09.41.14.02.4.05.8.07,1.22.12.04.23.07.38.12v.84h-1.3c-.03-.28-.06-.56-.09-.83-.14-.04-.25-.07-.38-.11-.03-.42-.05-.82-.08-1.24-.12-.04-.23-.08-.36-.13-.02-.41-.05-.81-.07-1.24-.12-.04-.23-.08-.36-.13-.02-.11-.04-.23-.06-.33-.11-.11-4.93-.11-5.45,0-.02.39-.05.79-.07,1.22Zm1.42-5.35c-.02.44-.04.84-.07,1.25-.13.04-.25.08-.37.11-.01.45-.08.87-.03,1.29.47.11,3.73.09,4.11-.02-.01-.25-.03-.51-.05-.77-.14-.05-.25-.09-.37-.13-.04-.43-.07-.84-.11-1.27-.13-.04-.24-.07-.37-.11-.03-.43-.05-.84-.07-1.24-.14-.04-.24-.07-.36-.11-.03-.44-.05-.87-.08-1.28-.16-.05-.28-.09-.4-.12-.02-.28-.04-.54-.05-.82h-.41c-.03.15-.05.27-.07.39-.13.03-.25.06-.38.1-.02.43-.05.84-.07,1.24-.15.05-.26.08-.38.12-.03.44-.05.85-.08,1.28-.14.04-.26.07-.4.11Z" style="stroke-width: 0px;"/>
      <path d="m284.98,45.2c.12.03.22.06.36.1.02.41.05.83.07,1.26.13.04.26.09.4.14.03.4.05.8.08,1.22.12.04.23.07.36.11.04.41.08.82.11,1.23.14.04.25.07.37.11.03.4.06.8.09,1.22.12.06.23.11.35.16.1.34-.04.93.23,1.19.29.15.24.37.26.6.02.24-.03.49.29.62.24.24.16.81.17,1.16.17.08.28.15.38.3-.43.34-.98.25-1.66.08-.02-.27-.06-.56-.05-.84,0-.28-.05-.47-.4-.47-.04-.44-.08-.85-.12-1.28-.11-.04-.22-.08-.36-.12-.03-.39-.05-.78-.08-1.16-.31-.1-4.91-.13-5.43-.03-.01.22-.05.43-.3.57-.22.21-.15.7-.18.99,0,.09-.06.23-.11.24-.35.08-.28.38-.32.61-.04.22-.03.44-.04.69-.47.13-.39.56-.46.93h-1.28v-.81c.11-.03.23-.07.36-.11.04-.4.07-.81.11-1.22.13-.05.23-.09.33-.14.04-.41.08-.81.11-1.2.14-.07.25-.12.35-.16.14-.48-.16-1.08.48-1.39.02-.26.04-.54.06-.84.59-.23.38-.89.46-1.38.11-.04.22-.08.36-.14.04-.39.09-.8.13-1.22.11-.04.21-.07.33-.12.03-.4.06-.8.1-1.24.1-.03.22-.06.36-.11.03-.4.05-.82.08-1.24.14-.04.25-.07.4-.12.02-.29.04-.58.07-.89.24-.02.43-.11.44-.4h1.74c.03.12.05.24.08.39.1.03.22.07.37.13.03.39.07.81.11,1.24.11.04.23.07.37.12.03.4.05.82.08,1.24Zm-.03,4.16v-1.34c-.15-.06-.26-.1-.39-.15-.04-.41-.07-.8-.11-1.22-.11-.05-.22-.1-.37-.16-.03-.41-.06-.82-.09-1.23-.13-.05-.24-.09-.36-.14-.04-.41-.07-.81-.11-1.24-.3,0-.42-.16-.42-.44h-.41c-.02.29-.03.57-.05.86-.62.22-.4.91-.47,1.42-.3,0-.38.15-.39.4-.01.3-.04.61-.06.9-.57.27-.43.86-.44,1.38-.43.21-.51.41-.38.95h4.05Z" style="stroke-width: 0px;"/>
      <path d="m130.38,54.39c-.02.13-.04.25-.07.41-.38.02-.77.04-1.16.06-.28.01-.57.03-.66.38h-5.35c-.05-.23-.1-.46-.38-.53-.16-.29.17-.52.37-.79h5.81c.05-.14.08-.25.11-.34.25-.07.49-.13.76-.21.2-1,.07-2.01.09-3.04-.16-.03-.29-.06-.43-.09-.02-.12-.03-.24-.05-.37-.27-.04-.53-.07-.81-.11-.05-.12-.09-.23-.13-.34-.52-.09-1.06-.04-1.59-.07-.29,0-.56-.04-.66-.42h-1.3c-.05-.15-.08-.27-.12-.39-.27-.04-.53-.07-.82-.11-.02-.12-.04-.24-.07-.38-.12-.02-.24-.04-.37-.06-.03-.14-.05-.27-.08-.41-.13-.03-.25-.06-.39-.1-.02-.38-.02-.76-.05-1.13-.02-.24.02-.5-.26-.66-.14-.08-.14-.27-.03-.36.47-.44.22-1.29.34-1.88.03-.37.04-.37.41-.47.03-.12.06-.25.09-.39.25-.04.5-.08.76-.13.03-.11.06-.22.11-.36h6.77c.06.41.05.83-.05,1.3-1.97,0-3.93.02-5.89.04-.22,0-.45-.03-.53.28-.02.09-.2.13-.33.21-.09,1.02-.07,2.06.01,3.12.15.02.28.04.43.07.02.13.04.24.07.38.56.04,1.09.08,1.65.12.05.12.1.23.15.33.53.08,1.06.04,1.6.07.29,0,.55.08.64.41.3.03.59.05.89.08.03.13.05.24.07.36.13.02.26.05.4.07.03.11.07.21.1.34.11.03.23.05.36.09.02.14.03.28.05.44.11.03.23.06.37.09.06,1.11.03,2.2.03,3.31,0,.27-.03.51-.31.67-.1.06-.12.28-.18.47-.1.01-.23.03-.38.06Z" style="stroke-width: 0px;"/>
      <path d="m257.19,48.53c.13-.05.23-.08.36-.12.02-.42.05-.83.07-1.26.13-.03.25-.06.37-.09.03-.42.07-.81.1-1.23.13-.05.24-.09.38-.13.03-.39.05-.79.08-1.21.12-.05.23-.1.35-.16.15-.53-.13-1.1.49-1.37.03-.25.06-.49.1-.77.71-.19,1.41-.08,2.13-.09.13.35-.04.89.46.9.04.42.08.82.11,1.22.14.05.25.1.41.16,0,.26-.01.52,0,.78.02.25.05.52.41.54.02.32.04.62.05.94.63.07.4.88.44,1.32.14.05.25.08.4.14.03.39.05.79.08,1.21.11.04.22.09.35.14.04.41.07.83.11,1.26.12.04.23.07.38.11.02.4.05.8.07,1.22.11.04.23.07.37.12.04.4.07.82.11,1.25.12.04.23.08.39.12v1.28c-.41.05-.83.03-1.3-.02-.04-.42-.08-.82-.12-1.24-.12-.04-.22-.08-.35-.13-.02-.41-.05-.83-.08-1.26-.12-.04-.23-.08-.36-.12-.03-.41-.06-.82-.1-1.22-.44-.1-4.81-.14-5.44-.05-.02.11-.04.23-.06.35-.12.03-.22.05-.36.08-.02.41-.05.83-.07,1.25-.13.05-.24.09-.36.14-.03.41-.06.82-.1,1.24-.12.04-.23.08-.37.12-.02.26-.04.54-.07.84h-1.32v-.85c.64-.11.36-.88.42-1.34.14-.06.25-.1.4-.16.04-.39.08-.79.12-1.21.11-.04.22-.08.37-.13.02-.4.05-.81.07-1.24.12-.03.22-.06.37-.1.04-.39.08-.8.12-1.24Zm1.33.79c.41.12,3.73.1,4.1-.03-.02-.4-.05-.81-.07-1.23-.15-.05-.27-.08-.39-.12-.03-.43-.05-.84-.08-1.24-.13-.04-.24-.07-.35-.11-.03-.44-.05-.86-.08-1.27-.16-.06-.27-.1-.37-.14-.04-.43-.08-.83-.11-1.23-.14-.04-.25-.08-.36-.11-.02-.15-.04-.27-.06-.4h-.42c-.03.29-.06.55-.09.82-.13.03-.24.07-.37.1-.02.43-.04.85-.07,1.27-.13.04-.24.08-.36.12-.02.42-.05.83-.07,1.25-.15.04-.27.07-.4.11-.02.43-.04.84-.07,1.26-.13.04-.25.08-.39.12v.83Z" style="stroke-width: 0px;"/>
      <path d="m159.07,48.5c-.28-.05-.52-.1-.77-.15-.07-.19-.08-.43-.35-.46-.24-.16-.19-.53-.28-.82-.16-.08-.38-.13-.37-.43.02-.9,0-1.81,0-2.72.12-.04.22-.07.35-.11.03-.26.06-.52.1-.8.13-.03.25-.05.4-.08.02-.13.04-.25.06-.38.13-.02.25-.04.4-.06.09-.39.41-.42.74-.42,2.18,0,4.33,0,6.51,0,.03.35.04.55.03.88-.21.08-.52.06-.44.43-2.14.06-4.23-.05-6.33.09-.02.15-.04.27-.06.39-.02.02-.03.06-.05.06-.28.07-.38.28-.38.53-.01.71,0,1.42,0,2.14.15.04.27.07.39.1.03.13.05.25.08.38.13.02.25.04.39.07.02.12.04.24.07.39.44.02.87.04,1.31.06.15.34.43.41.75.41.49,0,.97,0,1.46,0,.07.16.12.27.18.4.39.05.78.1,1.19.15.04.12.08.23.13.36.12.01.24.03.39.05.03.12.05.24.08.38.11.03.23.05.38.09.02.28.04.55.06.85.4.08.4.41.4.74,0,.64,0,1.28,0,1.94-.12.05-.23.1-.37.16-.03.25-.05.51-.08.8-.14.09-.4.11-.38.39,0,.04-.1.11-.15.12-.25.01-.34.16-.34.41-.45.03-.87.05-1.33.08-.09.31-.33.37-.63.37-1.6-.01-3.21,0-4.81,0-.16-.14-.14-.49-.5-.34v-.97c1.97-.05,3.95.02,5.92-.04.25,0,.44-.06.42-.38.15-.02.27-.04.38-.06.02-.02.04-.03.04-.04-.02-.47.58-.67.5-1.2-.07-.46-.01-.94-.01-1.42-.15-.04-.25-.08-.37-.11-.04-.27-.09-.54-.14-.83-.26-.03-.52-.06-.81-.09-.05-.1-.1-.21-.18-.38-.66-.05-1.37-.07-2.05-.06-.07-.15-.12-.26-.18-.39-.53-.03-1.07-.05-1.62-.08-.05-.13-.09-.24-.13-.37Z" style="stroke-width: 0px;"/>
      <path d="m154.12,50.21c.14.04.25.06.37.09.03.41.05.81.08,1.23.12.04.24.08.36.13.04.42.08.83.12,1.25.12.04.24.08.39.14.04.44-.18,1.21.41,1.33v.42h-1.31c-.02-.13-.04-.27-.07-.41-.11-.03-.22-.05-.35-.09-.04-.41-.07-.82-.11-1.25-.1-.04-.21-.07-.35-.12-.03-.4-.06-.82-.09-1.26-.1-.04-.22-.08-.37-.13-.02-.24-.04-.5-.06-.78h-5.46c-.02.28-.03.54-.05.83-.11.04-.22.09-.37.14-.03.4-.05.81-.08,1.24-.11.04-.21.07-.34.12-.04.4-.08.82-.12,1.24-.11.03-.21.07-.33.1-.03.11-.05.23-.08.37h-1.3c-.01-.14-.02-.25-.03-.37.13-.04.24-.08.38-.13.02-.4.05-.8.07-1.22.11-.04.23-.07.38-.12.03-.4.07-.81.11-1.24.12-.04.23-.08.37-.12.03-.41.05-.8.08-1.21.13-.05.24-.1.37-.15.04-.39.07-.79.11-1.21.12-.05.23-.1.35-.15.11-.4-.18-1.33.45-1.31.02-.3.03-.59.05-.91.6-.22.41-.88.48-1.39.11-.04.22-.08.37-.13.03-.4.06-.79.09-1.21.11-.04.23-.08.37-.13.03-.41.07-.82.11-1.25.11-.03.21-.06.34-.09.03-.11.06-.22.11-.36h1.72c.04.1.08.22.12.34.1.03.21.05.34.09.02.29.03.58.05.88.12.05.23.1.38.16.04.38.08.78.12,1.21.1.03.22.06.36.09.03.42.05.83.08,1.25.13.04.24.08.39.12.03.41.06.81.09,1.23.11.04.22.07.37.12.03.4.05.81.08,1.25.12.04.23.07.35.11.04.42.07.82.11,1.25Zm-4.57-5.34c-.03.44-.05.84-.08,1.25-.12.05-.24.09-.35.14-.03.43-.06.84-.08,1.24-.13.05-.24.08-.37.13-.03.41-.07.83-.11,1.25-.12.03-.23.06-.37.1.01.12.03.22.04.36,1.49.08,2.96.07,4.43,0v-.41c-.14-.04-.25-.08-.37-.11-.02-.43-.05-.85-.07-1.27-.14-.04-.26-.08-.4-.12-.03-.42-.05-.83-.08-1.24-.13-.05-.25-.09-.36-.13-.02-.42-.04-.83-.07-1.24-.12-.04-.24-.07-.37-.11-.04-.42-.08-.83-.12-1.28-.28.02-.52.04-.79.06-.05.44-.09.85-.13,1.27-.12.03-.22.06-.36.1Z" style="stroke-width: 0px;"/>
      <path d="m63.84,51.57c.54.15.34.61.44.96.11.03.22.07.36.11.02.11.04.23.07.35.14.02.27.03.41.05.03.11.06.23.09.34.14.12,2.9.15,3.59.03.04-.09.08-.2.13-.33.23-.05.47-.1.74-.15.03-.26.06-.53.1-.82.11-.03.21-.06.32-.1.29-2.85.03-6.89.12-9.93h1.27c.11.34.14,8.88.04,9.98-.56.16-.37.86-.46,1.32-.12.03-.24.06-.37.1-.02.13-.04.25-.06.39-.12.02-.24.04-.38.07-.02.11-.04.23-.07.36-.33.12-.82-.06-.91.51h-4.5c-.04-.14-.07-.26-.11-.41-.24-.03-.5-.06-.78-.1-.02-.12-.05-.24-.07-.38-.13-.02-.25-.04-.39-.07-.02-.13-.05-.26-.07-.42-.61-.09-.39-.87-.47-1.32-.36-.07-.39-.36-.4-.66-.01-3.13-.05-6.26.02-9.39h1.31c.09,3.16-.04,6.32.07,9.48Z" style="stroke-width: 0px;"/>
      <path d="m246.64,42.09c1.73-.08,3.46,0,5.2-.02.31,0,.64-.01.72.4.3.03.58.05.87.08.03.13.06.24.09.38.11.02.23.04.38.06.02.13.04.26.06.41.13.03.25.05.41.09.02.41.05.82.07,1.27.35.05.38.31.38.61,0,.54,0,1.08,0,1.63-.13.06-.23.1-.33.15-.2.55.17,1.38-.45,1.73-.1.05-.12.25-.2.42-.21.04-.47.08-.74.13-.04.12-.08.23-.13.4h-4.94c-.16,1.63-.04,3.21-.08,4.84-.42.25-.85.2-1.32.17-.1-3.8-.14-8.97.02-12.74Zm5.86,1.4c-1.38-.13-2.73-.05-4.11-.07-.43,0-.44.01-.44.45.04,1.66-.09,3.34.07,4.99,1.06.08,2.11,0,3.17.03.28,0,.49-.05.52-.36.3-.04.57-.07.84-.1.03-.15.06-.26.08-.38.13-.03.23-.05.36-.08.01-.25,0-.49.04-.72.04-.23-.02-.51.27-.65.16-.16.09-.49.1-.71-.01-.24.02-.51-.27-.65-.18-.36-.1-.88-.17-1.31-.14-.02-.26-.04-.39-.06-.03-.12-.05-.23-.08-.38Z" style="stroke-width: 0px;"/>
      <path d="m231.14,54.8h-1.35c-.14-7.73-.05-12.31.09-12.68h.71c.04.26.2.4.53.38.01,1.71,0,3.33,0,5.05.62.06,1.18.06,1.76-.07.05-.22.09-.43.34-.59.15-.1.17-.41.27-.68.07-.02.2-.05.34-.08.02-.13.03-.25.05-.39.12-.03.24-.06.38-.09.04-.25.08-.51.13-.78.11-.03.21-.05.34-.08.02-.13.04-.27.06-.43.13-.03.26-.05.41-.08.02-.13.03-.25.05-.39.12-.03.24-.06.36-.09.04-.26.08-.5.12-.77.13-.03.26-.06.4-.09.01-.13.03-.26.04-.4.14-.03.27-.06.41-.09.05-.11.09-.22.14-.33.82-.13.81-.04.81.71,0,.16-.05.33-.08.5-.12.03-.24.06-.37.09-.02.14-.05.28-.07.42-.11.02-.22.04-.35.07-.02.13-.05.26-.08.4-.11.04-.23.09-.35.14-.04.24-.08.47-.13.73-.12.02-.25.05-.4.07-.02.15-.03.28-.05.44-.13.02-.25.04-.36.05-.06.27-.11.51-.16.75-.13.05-.25.1-.37.14-.02.13-.03.25-.05.39-.12.02-.23.04-.35.06-.02.13-.04.27-.07.42-.11.04-.22.07-.4.13v1.23c.12.02.24.04.39.07.02.13.03.25.05.38.11.05.22.1.35.17.04.22.07.45.12.71.12.02.25.05.4.08.02.14.03.27.05.43.12.03.24.05.37.08.04.25.07.49.11.75.13.03.25.06.39.09.02.14.04.27.06.43.12.02.24.04.37.07.09.33-.02.76.47.88.02.14.04.27.06.42.13.03.25.05.38.08.02.13.04.25.06.4.11.03.23.06.36.09.04.26.07.52.11.81h-1.36c-.02-.14-.04-.27-.07-.42-.12-.02-.24-.04-.34-.06-.03-.03-.04-.04-.04-.05.07-.33-.24-.41-.38-.6-.11-.16-.12-.39-.19-.63-.08-.02-.2-.04-.34-.07-.02-.12-.04-.26-.07-.41-.11-.03-.22-.07-.38-.12-.04-.22-.08-.47-.13-.74-.1-.03-.21-.06-.35-.1-.02-.12-.04-.24-.06-.39-.11-.02-.22-.05-.37-.08-.05-.23-.1-.47-.16-.73-.1-.04-.21-.09-.35-.15-.02-.12-.04-.26-.06-.41-.13-.02-.25-.04-.38-.06-.02-.15-.05-.28-.07-.41q-.35-.12-.47-.45h-1.32v5.88Z" style="stroke-width: 0px;"/>
      <path d="m102.57,42.1h7.24c.1.47.11.81.04,1.3-1.97.09-3.91-.08-5.88.09-.15,1.34-.05,2.65-.08,4.02,1.81.09,3.6-.03,5.42.06.11.41.11.78-.05,1.22-1.74.2-3.53.04-5.28.09-.11.37-.12,3.84-.03,4.55.3.1.68.03.91.3.07.09.27.12.41.12,1.02,0,2.04,0,3.05,0,.4,0,.81,0,1.21,0,.34,0,.38.06.39.4,0,.2,0,.36-.06.56h-7.28v-12.72Z" style="stroke-width: 0px;"/>
      <path d="m174.2,42.53q.33-.11.49-.41h.73c.21,1.81.04,3.61.09,5.42.61.07,1.17.05,1.77,0,.03-.13.06-.26.09-.42.11-.02.22-.05.37-.08.02-.11.04-.23.07-.38.1-.03.22-.06.35-.09.05-.25.1-.51.16-.78.11-.02.23-.05.36-.07.02-.15.03-.28.05-.44.13-.02.25-.04.38-.06.04-.22,0-.48.31-.53.17-.16.16-.5.24-.75.1-.02.22-.04.36-.07.02-.14.03-.27.05-.42.13-.03.25-.05.39-.08.04-.24.08-.48.13-.75.21-.06.44-.08.5-.36,0-.05.1-.1.16-.11.33-.08.65-.11,1.01,0,.02.25.04.49.06.76-.16.03-.27.06-.41.09-.02.13-.04.27-.05.42-.11.03-.22.05-.34.08-.04.23-.09.48-.14.74-.12.03-.23.06-.37.1-.02.13-.04.27-.06.42-.12.02-.24.05-.38.07-.02.12-.03.24-.05.39-.1.04-.21.09-.36.16-.05.21-.1.46-.16.73-.09.02-.21.05-.35.08-.02.12-.04.26-.07.42-.11.03-.22.06-.35.09-.06.24-.11.48-.17.72-.11.04-.21.07-.33.11-.02.14-.04.28-.06.43-.12.02-.24.05-.38.07-.03.23-.11.44.21.53.19.16.18.49.26.75.1.02.22.04.36.07.02.14.05.27.07.43.11.03.23.06.36.09.03.25.07.49.11.77.1.03.22.06.36.1.02.11.04.25.07.4.12.02.24.05.38.08.04.23.09.47.14.72.12.05.23.09.35.14.01.13.03.26.04.4.13.03.26.07.41.1.02.12.04.24.06.39.54.06.35.54.47.88.11.02.23.04.37.07.02.13.03.25.05.4.14.07.47.06.39.29-.02.07-.12.15-.2.16-.5.08-.99.07-1.52,0-.04-.27-.08-.52-.13-.8-.1-.02-.21-.04-.34-.07-.02-.12-.05-.25-.08-.41-.12-.03-.26-.06-.4-.1-.02-.13-.03-.25-.05-.4-.45-.1-.43-.49-.46-.87-.12-.03-.24-.05-.38-.08-.02-.13-.04-.27-.07-.42-.12-.03-.24-.07-.38-.1-.04-.24-.07-.48-.11-.75-.12-.02-.24-.04-.37-.07-.02-.15-.05-.28-.07-.43-.12-.03-.24-.05-.36-.08-.13-.3.05-.78-.49-.86-.03-.14-.06-.27-.09-.43h-1.75v5.88h-1.27c-.1-.33-.14-11.61-.04-12.27Z" style="stroke-width: 0px;"/>
      <path d="m98.86,47.04c-.13.05-.23.09-.35.13-.03.41-.05.81-.08,1.24-.63.2-.39.9-.47,1.41-.32,0-.39.21-.4.46-.07.46.17,1.23-.5,1.33,0,.29,0,.57,0,.84-.01.26-.05.51-.4.53-.03.34-.05.65-.07.97-.02.23-.09.41-.36.4-.02.16-.05.3-.07.45h-2.24c-.02-.3-.03-.57-.05-.87-.12-.03-.24-.06-.38-.1-.02-.42-.05-.83-.07-1.26-.12-.04-.24-.09-.38-.14-.03-.4-.06-.8-.1-1.23-.1-.03-.21-.07-.36-.12-.02-.4-.05-.81-.07-1.25-.63-.17-.4-.88-.44-1.37-.63-.19-.38-.9-.43-1.39-.95-.26.02-1.6-.93-1.85-.05-.5.19-1.16-.44-1.36.03-.59-.19-1.17.01-1.77h.81c.03.11.06.23.1.37.12.04.25.08.4.13.02.42.04.83.07,1.26.11.04.22.07.36.11.02.4.05.81.07,1.25.63.15.4.91.44,1.39.14.06.29.09.34.17.18.49.11,1.04.18,1.57.35.03.42.21.4.49-.01.29.03.58.04.89.12.04.23.08.37.12.02.41.04.82.07,1.26.11.04.23.08.36.13.03.41.06.83.09,1.26.12.04.23.09.36.13.02.11.05.23.08.39.28-.02.55-.03.86-.05.02-.44.05-.85.07-1.29.1-.04.21-.09.37-.15.03-.39.07-.8.11-1.24.38-.06.36-.38.39-.66.02-.22,0-.45.03-.67.03-.23,0-.52.38-.46.04-.47.08-.9.11-1.33.14-.05.26-.1.38-.14.02-.41.04-.82.07-1.24.12-.04.23-.07.38-.12.02-.42.04-.84.06-1.29.13-.04.25-.08.4-.12.02-.4.05-.81.07-1.26.1-.03.2-.06.33-.1.04-.24.08-.5.13-.8.4-.05.8-.06,1.24.04.02.26.04.51.06.77-.14.04-.26.08-.4.12-.03.42-.05.83-.08,1.25-.12.04-.23.07-.36.11-.04.42-.08.85-.12,1.3-.12.04-.23.07-.36.11-.03.42-.05.82-.08,1.24Z" style="stroke-width: 0px;"/>
      <path d="m141.71,55.23h-.82c-.07-.21-.17-.4-.5-.37-.02-3.81.05-7.58-.03-11.38-1.14-.12-2.23-.08-3.36-.09-.93.07-.67-.64-.71-1.3h9.52c.1.38.1.59-.04,1.29-1.16.01-2.34.03-3.53.04-.04.28-.08.53-.45.47-.11,3.79.08,7.56-.09,11.35Z" style="stroke-width: 0px;"/>
      <path d="m303.58,48.95c-.14-.03-.24-.05-.36-.08-.02-.27-.05-.53-.07-.82-.12-.03-.23-.06-.38-.1-.04-.26-.07-.54-.11-.82-.12-.03-.24-.06-.36-.09-.03-.26-.06-.51-.09-.77-.12-.05-.24-.09-.36-.13-.04-.24-.08-.49-.13-.75-.1-.05-.21-.1-.35-.16-.01-.12-.03-.26-.05-.42-.47-.12-.4-.54-.43-.9-.13-.04-.23-.07-.36-.11-.04-.25-.09-.51-.14-.8-.1-.03-.22-.07-.35-.11v-.75c.41-.09.8-.05,1.22-.05.03.15.06.28.1.43.11.03.23.07.36.11.04.26.08.52.12.8.11.04.23.07.37.12.03.24.05.49.08.76.1.03.22.06.36.1.03.26.07.53.11.83.12.02.24.05.37.08.02.27.05.53.07.82.11.03.22.06.36.09.02.26.05.52.07.81.13.03.26.06.4.09.02.27.05.53.07.83h1.3c.09-.3-.05-.75.44-.87.03-.25.01-.53.33-.6.07-.23.15-.47.25-.78.03-.01.14-.07.28-.14.04-.23.09-.49.14-.76.1-.04.22-.08.35-.14.03-.25.06-.5.1-.76.12-.03.23-.06.35-.1.04-.27.08-.53.12-.81.1-.03.2-.06.33-.1.05-.24.1-.5.15-.79h1.23v.83c-.12.02-.23.04-.36.06-.02.29-.05.55-.07.83-.13.03-.26.06-.4.09-.03.27-.05.53-.08.81-.12.03-.24.06-.37.09-.03.26-.05.53-.08.8-.12.04-.23.08-.36.12-.04.25-.08.51-.11.78-.13.04-.24.08-.35.12-.1.33.08.79-.44.87-.13.33.05.81-.49.91-.02.15-.03.28-.05.45-.1.04-.21.1-.34.16-.04.22-.09.47-.14.74-.08.03-.18.07-.29.11-.27,1.6-.04,3.28-.11,4.92h-1.34c-.05-1.65.02-3.29-.04-4.95-.14-.03-.27-.07-.42-.1-.03-.26-.05-.52-.08-.81Z" style="stroke-width: 0px;"/>
      <path d="m199.31,55.23c-.23-3.73-.03-7.5-.09-11.24-.21-.21-.36-.36-.51-.5,0-.03.02-.06.03-.09h-3.49c-.18-.46-.14-.87-.11-1.31h9.47c.11.4.1.68-.04,1.26-1.28.13-2.6-.09-3.92.16-.17,3.62-.02,7.24-.07,10.86,0,.21-.05.41-.07.62-.02.17-.12.24-.28.24-.28,0-.55,0-.91,0Z" style="stroke-width: 0px;"/>
      <path d="m180.94,74.43h-2.15c-.1-.32-.12-11.68-.02-12.26h2.18c.1.6.09,11.88,0,12.26Z" style="stroke-width: 0px;"/>
      <path d="m217.52,42.1h.79c.08.32.13.39.47.47.03,3.62-.07,7.23.05,10.86.37.12.73,0,.99.3.07.09.27.11.41.11,1.5.04,2.98-.08,4.48.1v.81c-.4.12-5.24.16-6.29.05-.03-.12-.06-.25-.09-.39-.13-.02-.25-.03-.38-.05-.02-.13-.04-.25-.06-.38-.13-.02-.25-.05-.37-.07-.13-.63-.12-11.23.01-11.8Z" style="stroke-width: 0px;"/>
      <path d="m227.85,54.7c-.57.22-1.11.12-1.64.12-.1-.32-.14-11.51-.06-12.24.18-.15.33-.28.48-.42-.01-.02-.03-.05-.04-.07h.84c.02.26.09.47.41.5v12.11Z" style="stroke-width: 0px;"/>
      <path d="m133.12,54.84c0-3.98,0-7.93,0-11.91-.08-.97.54-.86,1.28-.86.07.22.06.5.36.55.12.1.08.35.09.51,0,3.54,0,7.08,0,10.62.01.29.04.5-.25.7-.02.44-.33.39-.63.39-.26,0-.52,0-.84,0Z" style="stroke-width: 0px;"/>
      <path d="m86.65,42.06c.41.02.81.04,1.23.07.15,4.23.05,8.45.04,12.68h-1.29c-.1-.41-.09-11.96.02-12.75Z" style="stroke-width: 0px;"/>
      <g style="clip-path: url(#d);">
        <path d="m28.39,77.68h-.04c-.05.37-.14.73-.17,1.12l.8-.16-.59-.96Zm-4.58-.59c.23-.02.46-.01.69,0,.04,0,.08.07.11.12.17.3.34.62.51.93.03.06.07.12.12.2l.16-.25c.17-.28.34-.55.51-.83.04-.08.13-.13.22-.12.18.02.36.02.58.03-.06.1-.11.18-.15.25-.3.44-.6.88-.91,1.32-.1.12-.15.27-.15.43,0,.35-.02.7-.04,1.06h-.63v-.25c.01-.29.02-.58.04-.87,0-.13-.02-.25-.09-.36-.29-.49-.57-.97-.85-1.46-.03-.06-.07-.12-.11-.21Zm4.74-.28l1.82,2.83-.68.13-.41-.64-.92.18q-.3.06-.35.36c-.02.12-.03.24-.06.35-.02.05-.05.09-.1.11-.18.04-.36.06-.57.1l.59-3.3.67-.12Zm-8.04-.38l.62.14c-.09.4-.18.78-.27,1.19l1.18.27.28-1.18.57.12c.02.17-.55,2.72-.68,3.05l-.59-.13c.06-.44.2-.87.28-1.32-.39-.11-.78-.18-1.18-.28-.11.45-.21.88-.31,1.33l-.62-.15.7-3.05Zm-2.51-.13c-.31.23-.58.5-.8.82l.72.33c.03-.39.06-.76.09-1.14Zm14.84-.87c.1.13,1.03,2.38,1.19,2.89-.16.07-.33.14-.5.21-.09.04-.16-.03-.23-.08l-1.17-.86c-.18-.14-.36-.26-.56-.36l.72,1.8-.55.23c-.4-.98-.78-1.93-1.17-2.89.03-.03.03-.04.04-.04l.51-.2c.14.1.29.19.43.3.43.32.86.64,1.29.95.06.05.13.08.2.1-.24-.6-.49-1.21-.74-1.84l.53-.21Zm-14.8,0l.6.28c-.06,1.11-.12,2.22-.19,3.36l-.63-.3.05-.76-1.12-.52-.48.55-.65-.3,2.43-2.31Zm-3.63-1.6c-.15.21-.29.4-.45.62.26.18.49.35.73.51.06.03.13.05.2.06.14.02.29-.05.34-.19.09-.12.08-.28-.02-.39-.22-.25-.52-.42-.8-.62Zm21.32-.12c.28,0,.56.1.77.31l-.42.45c-.08-.04-.16-.07-.25-.1-.45-.09-.88.2-.97.65-.02.08-.02.17-.01.25.07.41.31.77.67.99.31.22.73.19,1-.08.12-.12.22-.25.31-.39.09-.1.08-.26-.02-.35,0,0,0,0,0,0-.04-.05-.08-.1-.12-.15l-.3.2-.29.21c-.1-.15-.2-.28-.31-.43l1.09-.79c.05.06.09.1.12.14.18.24.35.48.53.71.09.1.1.24.04.35-.18.47-.52.87-.96,1.12-.5.32-1.15.28-1.6-.1-.47-.33-.76-.86-.77-1.44,0-.26.07-.52.22-.74.24-.37.6-.63,1.02-.76.09-.03.19-.05.28-.05Zm-21.51-.71c.47.35.93.68,1.37,1.02.26.17.39.47.35.77-.04.47-.46.83-.93.79-.08,0-.16-.02-.23-.05l-.14-.05c.04.18.06.37.08.55,0,.19,0,.38-.03.57-.01.18-.03.36-.05.59-.21-.15-.38-.28-.55-.4-.08-.06-.07-.13-.07-.21.01-.34.02-.68.04-1.01.02-.34-.14-.54-.42-.7-.25.34-.5.68-.76,1.04l-.52-.38,1.84-2.53Zm24.07-.68c.08.17.16.33.25.49.07.17.17.34.27.49l.54-.57c-.25-.15-.92-.42-1.06-.42Zm-26.27-.42l-1.06.38.54.64c.2-.35.38-.66.55-.97l-.03-.04Zm25.92-.41l3.14,1.21-.47.52-.71-.28-.84.91.33.67-.45.5c-.49-1.02-.96-2.02-1.45-3.03l.45-.49Zm-25.48-.33s.08.06.15.14c.09.11.19.23.28.34l-1.59,2.96-.45-.53.36-.67-.79-.93-.7.25-.44-.52,1.04-.35c.65-.22,1.29-.44,1.94-.66.1-.04.15-.05.2-.04Zm13.52-.09h-1.26c-.01.09-.03.18-.03.26-.08,1.15-.15,2.29-.24,3.44-.01.11.04.21.13.27.22.17.44.35.66.53.04.03.08.05.12.08.26-.21.5-.41.76-.6.09-.06.14-.17.13-.28-.07-1.03-.14-2.05-.21-3.08-.01-.2-.04-.4-.05-.6Zm1.51-.08l-1.25.08v.21c.08,1.18.17,2.35.25,3.53,0,.07.04.13.11.16l.76.45s.09.05.14.07c.22-.23.44-.47.66-.69.09-.08.13-.21.09-.32-.24-1.11-.47-2.22-.7-3.33-.01-.05-.03-.1-.05-.15Zm-4.31-.02s-.02.06-.03.08l-.42,1.97c-.1.47-.19.94-.3,1.41-.05.15,0,.31.12.41.13.12.24.26.36.38.08.09.17.18.27.27l.89-.52c.08-.06.13-.15.12-.25.02-.29.03-.58.05-.87.05-.72.1-1.43.15-2.15.03-.21.03-.42.06-.65l-1.27-.08Zm5.9-.16l-1.31.16c.02.1.03.16.04.23.08.39.17.77.25,1.16.15.69.3,1.38.45,2.07.02.08.02.17.12.21l.99.41c.19-.27.37-.52.55-.77.08-.1.1-.23.05-.35-.37-1-.72-2-1.09-3-.01-.04-.03-.07-.06-.12Zm-7.47-.03s-.03.05-.04.08c-.38,1.04-.76,2.08-1.13,3.12-.03.09-.02.18.04.26.15.22.31.44.47.66.04.06.08.11.12.16.3-.13.59-.26.89-.37.12-.04.2-.14.21-.26.23-1.08.45-2.15.69-3.23.02-.08.02-.16.04-.25l-1.28-.17Zm9.08-.27l-1.35.26c.38,1.06.76,2.09,1.13,3.11.04.1.13.17.23.19l.77.19c.05.01.11.02.17.03.15-.29.29-.57.44-.85.07-.1.07-.23,0-.33-.44-.81-.87-1.63-1.3-2.45-.03-.05-.06-.11-.1-.16Zm-10.7-.04l-.63,1.18-.79,1.49c-.05.07-.06.16-.03.24.17.3.33.61.48.91h0s.05,0,.07,0c.31-.08.63-.16.94-.24.08-.02.13-.08.15-.15.03-.09.06-.17.09-.26l.98-2.66c.03-.08.05-.15.08-.25l-1.34-.27Zm12.39-.39l-1.42.37s.03.08.05.11c.4.75.81,1.49,1.19,2.25.13.27.29.41.6.41.25.01.49.04.74.08.03-.07.05-.12.07-.17.08-.24.15-.48.25-.72.06-.12.04-.27-.05-.37-.44-.6-.87-1.2-1.31-1.8l-.12-.16Zm-13.94-.02c-.12-.03-.18.02-.24.11-.4.56-.81,1.12-1.21,1.68-.08.11-.21.22-.23.35,0,.15.05.29.11.42.08.23.16.45.24.68.06,0,.1,0,.14,0,.27-.03.53-.08.8-.1.13,0,.25-.08.3-.2.43-.81.86-1.62,1.29-2.42.03-.05.04-.1.06-.15-.43-.12-.85-.23-1.27-.35Zm9.84-.31s-.02,0-.02,0c-.13,0-.26.02-.43.03.02.17.04.3.06.44.07,0,.12,0,.17,0,.08,0,.15-.02.23-.03.14-.03.2-.11.19-.23,0-.11-.09-.2-.2-.2Zm5.88-.23s-.09,0-.13.01c-.45.16-.9.3-1.36.46h0s.01.05.03.07c.45.63.91,1.26,1.36,1.89.05.08.15.12.24.1.21,0,.42-.01.63-.01h.37c.07-.37.15-.73.21-1.09,0-.05-.03-.1-.06-.14-.39-.41-.78-.81-1.17-1.22-.03-.04-.07-.06-.11-.07Zm-17.52-.05c-.09-.03-.14.01-.2.07-.33.35-.66.72-1.01,1.05-.21.2-.3.39-.21.68.06.25.11.5.15.76h1.17l1.51-2.07c-.49-.17-.95-.33-1.42-.49Zm8.9-.03l-.18.52h.43l-.21-.52h-.04Zm-2.41-.18c-.1.22-.17.39-.26.57l.43.04-.17-.61Zm2.34-.04h.19c.17.41.35.83.52,1.26-.12.06-.19.03-.23-.08-.04-.11-.07-.18-.11-.27h-.53c-.04.1-.07.19-.11.29-.04.1-.04.1-.21.08l.47-1.27Zm2.72-.02s-.01,0-.02,0c-.12,0-.25.02-.39.04.01.14.02.26.04.39h0c.15-.02.27-.03.39-.06.09-.01.16-.1.15-.19,0,0,0,0,0,0,0-.1-.08-.18-.17-.18Zm-4.26-.03s.08.03.1.07c0,.01.02.03.02.04.09.16.19.33.29.51.13-.17.25-.32.35-.48.04-.09.15-.12.23-.08,0,0,.01,0,.02.01-.05.07-.1.14-.15.2-.04.06-.09.12-.14.18-.19.17-.29.42-.26.68,0,.06,0,.11-.02.17h-.14s-.02-.05-.02-.06c.07-.33-.02-.67-.23-.93-.06-.09-.11-.19-.17-.29.04-.03.08-.03.12-.03Zm-.75-.07s.07.05.09.11c.12.4.25.8.36,1.2-.13.03-.19.01-.21-.1-.02-.11-.06-.19-.09-.29l-.54-.05c-.05.1-.1.19-.14.29-.04.1-.1.11-.21.05.2-.4.39-.8.59-1.21.06-.01.11-.02.15,0Zm5.02-.05c.3.01.4.27.22.56.03.02.05.04.08.06.16.11.2.33.09.49-.05.07-.11.12-.19.14-.05.02-.09.03-.14.03-.16.02-.33.04-.52.06-.05-.44-.09-.85-.15-1.29.21-.03.41-.05.62-.05Zm-6.67-.18s.08.04.1.08c0,.01.01.02.01.04.07.18.15.35.24.54.14-.15.27-.29.39-.43.05-.08.16-.11.24-.06,0,0,.02.01.02.02-.15.16-.31.33-.47.49-.1.08-.16.2-.16.33,0,.08-.02.17-.04.25-.01.1-.07.11-.18.07.01-.1.02-.21.04-.32.03-.13.01-.27-.05-.39-.1-.19-.18-.39-.28-.6.04-.02.09-.02.13-.01Zm8.39-.1c.08.42.15.83.23,1.25l-.16.04c-.04-.2-.08-.38-.12-.59l-.65.12c.03.21.06.39.1.58l-.15.05c-.08-.42-.16-.84-.24-1.27l.16-.04c.03.17.07.32.1.5.22-.01.44-.05.65-.1-.03-.17-.05-.34-.08-.51l.16-.02Zm.9,0l-.04.02c0,.09-.01.18-.02.27,0,.09-.02.18-.03.29l.42-.11-.33-.48Zm5.22-.06c-.06,0-.12,0-.17.04-.44.19-.88.38-1.32.57-.02.01-.05.03-.1.05.03.04.06.09.09.13.36.38.73.76,1.09,1.13.05.06.13.08.21.06l.56-.09c.15-.02.3-.05.45-.08.02-.36.03-.69.05-1.03.01-.09-.04-.18-.11-.23-.2-.15-.41-.3-.6-.47-.04-.04-.1-.07-.16-.07Zm-21.4-.03s-.07.02-.1.05c-.24.19-.47.38-.71.57-.04.03-.06.07-.06.12.01.36.03.72.05,1.09.36.06.71.12,1.06.17.06,0,.12-.02.17-.06.4-.41.81-.83,1.23-1.27h0c-.53-.22-1.03-.43-1.53-.64-.04-.02-.08-.02-.11-.01Zm-4.54-.04h0s-.77.43-.77.43c.14.22.26.44.4.64.14.18.4.21.58.07.14-.11.2-.31.13-.48l-.33-.66h0s0,0,0,0Zm10.15-.04l.97.22-.03.14-.41-.07-.25,1.1-.16-.03c.08-.37.16-.73.24-1.11l-.32-.08c-.09-.02-.08-.08-.04-.16Zm10.54-.04s.08.02.12.08c.24.33.49.67.75,1.03-.3.09-.28-.2-.47-.28l-.49.12c-.01.1-.02.19-.03.29,0,.1-.05.15-.18.15.02-.22.04-.44.07-.66.03-.22.06-.44.09-.67.05-.03.09-.06.13-.05Zm-11.9-.28c.1-.02.2.04.22.14,0,0,0,0,0,0,.09.26.18.52.27.78.02.06.05.12.09.23.09-.35.17-.65.25-.95l.15.04c-.11.41-.21.82-.31,1.21-.13.04-.19-.02-.22-.12-.09-.25-.18-.51-.26-.76-.02-.07-.06-.14-.11-.2l-.24.88-.15-.03.32-1.23Zm9.26-.03l-.89.25v.06c.34,0,.66-.04.98-.11l-.09-.21Zm-5.64,0l-.06.22c.34.02.64.09.95.1h0s.01-.05.01-.05l-.91-.26Zm-4.52-.08l-.37.49.39.13c.01-.21,0-.41-.03-.62Zm14.57-.11l-.33.65.74.54c-.07.08-.2.09-.28.02,0,0-.01-.01-.02-.02-.16-.13-.33-.25-.5-.38-.13.11-.17.29-.1.44.02.04.04.09.05.14.03.12-.03.13-.14.13-.13-.4-.25-.79-.38-1.2l.15-.06c.07.19.13.37.2.59.07-.12.11-.2.15-.29.06-.12.13-.25.19-.38.04-.11.15-.18.27-.18Zm-14.6-.09l.18.06.1,1.38-.18-.05-.03-.42-.51-.17c-.06.08-.12.16-.19.24-.07.08-.07.08-.21.01.02-.03.05-.07.07-.1l.77-.95Zm22.45-.12l2.74,1.51c-.1.17-.19.34-.28.5-.04.08-.12.07-.19.07l-1.37.06c-.25.01-.5.03-.76.04v.04s1.65.92,1.65.92c-.07.19-.16.37-.28.53l-2.73-1.51c.06-.1.12-.2.17-.3.08-.21.22-.25.43-.26.63-.02,1.26-.05,1.88-.08l.18-.02c-.28-.19-.58-.35-.88-.51-.28-.16-.56-.32-.86-.49l.28-.52Zm-30.16-.02c.04.06.07.11.1.15.21.39.42.78.63,1.18.19.31.15.72-.1.99-.24.3-.62.45-1,.37-.24-.05-.46-.21-.58-.43-.13-.19-.24-.4-.36-.6-.03-.04-.06-.08-.09-.15l-1.02.57-.3-.56,2.72-1.51Zm19.01-.04l-.88.39.1.28,1.03-.19-.26-.48Zm-7.84,0c-.1.15-.17.31-.22.47l1,.18.1-.26-.87-.39Zm16.67-.14l-1.75.91c.25.19.47.37.7.55.03.02.08.03.11.02.34-.1.68-.21,1.04-.32-.03-.38-.07-.74-.1-1.16h0Zm-25.5,0c-.03.4-.06.77-.09,1.16.35.11.7.21,1.04.31.04,0,.08,0,.12-.02.24-.18.48-.36.73-.56l-1.79-.89Zm21.18-.01l.06.13-.39.15c.12.35.24.69.37,1.06l-.15.06c-.13-.36-.25-.7-.39-1.06l-.39.12c-.06-.07-.07-.13.02-.16l.86-.3Zm-17.25-.14c.21-.03.41.05.55.21.08.09.09.22.05.33-.08,0-.13-.01-.15-.11-.03-.18-.19-.31-.37-.3-.08,0-.15.04-.18.12-.03.07,0,.15.06.19.06.05.12.1.18.14s.13.09.18.14c.12.09.16.24.11.38-.05.14-.18.23-.32.23-.21.01-.41-.07-.55-.23-.1-.11-.13-.26-.07-.39.08,0,.13,0,.15.1.02.21.19.37.41.38.09.02.19-.04.22-.12.03-.08,0-.18-.07-.23-.08-.06-.15-.12-.23-.18-.06-.04-.11-.09-.16-.14-.08-.08-.11-.2-.07-.31.04-.12.14-.2.26-.21Zm17.76-.08l.47,1.2-.15.06c-.15-.4-.31-.79-.47-1.19l.15-.07Zm-13.89-.26c-.19.26-.37.51-.57.78l1.1.25.28-.54-.81-.5Zm9.89,0l-.82.5.3.56h0s0,0,0,0h0s1.09-.26,1.09-.26c-.21-.28-.39-.54-.58-.8Zm-4.96-.36c-.06.15-.12.3-.18.45-.14.37-.14.37.16.64.01.01.02.02.04.03.08-.1.17-.19.24-.28.03-.04.04-.08.04-.13-.08-.24-.17-.47-.25-.71h-.04Zm5.89-.4l-.73.63c.22.3.43.58.64.88l1.19-.36-1.1-1.15Zm-11.74,0c-.36.38-.71.74-1.08,1.13l1.19.35.63-.87-.74-.61Zm-.82-.87l-1.78,1.4v.06l1.27.45,1.15-1.2c-.22-.24-.42-.47-.64-.71Zm13.37-.01l-.62.72c.32.33.61.64.92.94.33.33.18.29.62.14.3-.1.6-.22.95-.35h0s-1.85-1.46-1.85-1.46Zm-19.47-.05c-.28.11-.55.21-.81.32-.05.02-.08.11-.1.17-.05.2-.09.4-.14.6-.03.13-.06.26-.08.39.36.15.69.34,1.06.48.02-.67.05-1.3.08-1.96Zm25.58,0c.04.67.08,1.3.12,1.97h0s1.03-.48,1.03-.48c-.08-.36-.16-.7-.25-1.04,0-.05-.04-.09-.08-.12-.26-.11-.53-.22-.82-.33Zm-16.46-.3c-.21.28-.39.52-.57.77-.06.09-.15.14-.26.14-.37.01-.75.03-1.12.05-.06,0-.12.01-.23.03.9.89,2,1.56,3.21,1.97.91.3,2.21.49,2.55.38-.24-.26-.48-.52-.71-.79-.33-.38-.3-.21-.22-.76.02-.13.04-.27.06-.43l-.28.13c-.27-.33-.53-.65-.78-.97-.05-.08-.14-.12-.23-.09-.27.05-.54.09-.81.14-.13.02-.26.04-.41.06l-.2-.63Zm7.3-.05h0s-.22.68-.22.68c-.09,0-.15-.01-.23-.02-.29-.04-.58-.09-.88-.14-.29-.05-.3-.05-.49.19-.21.27-.42.54-.64.81l-.2-.05c.03.24.05.45.09.67.02.1-.01.2-.08.27-.25.26-.5.54-.76.8-.05.05-.1.12-.18.21,1.32,0,2.61-.33,3.77-.95,1.06-.58,1.87-1.21,1.98-1.48-.44-.02-.88-.05-1.31-.06-.12,0-.23-.06-.29-.16-.15-.22-.31-.43-.47-.65l-.1-.12h0s0,0,0,0Zm1.08-.27l-.03.03c.06.14.12.28.17.42q.15.37.56.36s.02-.01.05-.03c-.01-.12-.02-.25-.03-.38,0-.03-.02-.06-.05-.08-.22-.11-.45-.21-.68-.31Zm-9.37,0l-.83.36v.39s.02.03.03.06l.44-.05c.07-.14.12-.26.18-.38.06-.12.1-.23.17-.39Zm12.04-.28c-.19.27-.36.52-.54.78h0s.03.04.04.06c.61.47,1.21.93,1.81,1.4.08.06.19.07.27.02.37-.17.75-.33,1.12-.5.05-.02.09-.05.16-.09l-2.87-1.66Zm-14.74,0l-2.87,1.67c.1.05.15.08.21.11.35.15.7.3,1.04.46.13.07.28.05.38-.05.55-.44,1.11-.87,1.66-1.3.03-.03.06-.06.1-.09l-.53-.78Zm8.78-.3l-1.37.22v1.36l1.1.64c.24-.3.47-.59.71-.88.05-.08.05-.18,0-.26-.13-.33-.25-.66-.38-.98-.01-.03-.03-.07-.05-.1Zm-2.89-.06h0c-.15.4-.31.8-.47,1.19-.03.07,0,.14.05.19.12.15.24.3.37.46.13.16.23.28.35.43.34-.2.65-.39.98-.58.08-.05.08-.12.08-.2v-1.1s0-.09-.02-.13c-.24-.03-.46-.06-.68-.1-.22-.04-.43-.11-.66-.16Zm-9.58-.03c-.1-.03-.21.04-.24.14,0,0,0,0,0,0-.03.13-.05.27-.07.43l.44.07c.02-.16.04-.29.05-.43.02-.1-.05-.2-.16-.22,0,0-.01,0-.02,0Zm-.62-.03c-.07,0-.13.05-.16.12-.05.14-.07.28-.05.43l.36.05c.02-.16.04-.3.04-.43,0-.1-.1-.18-.2-.17Zm-.12-.14c.07-.03.15-.03.23,0,.03.01.06.03.08.05.04.03.07.07.1.1.08-.11.21-.17.34-.15.2.02.34.2.32.39,0,0,0,0,0,.01-.01.19-.05.39-.08.6l-1.26-.16c-.01-.23.03-.47.1-.69.03-.08.09-.13.16-.16Zm23.08-.12c.02.15.04.27.06.42l.52-.28v-.04s-.58-.11-.58-.11Zm-.56-.27s.06,0,.09,0c.37.08.74.17,1.11.26.05.01.1.04.13.09.04.05.02.12-.02.15,0,0-.01,0-.02,0-.37.21-.74.42-1.14.65-.08-.3.22-.25.32-.43l-.06-.48c-.1-.03-.2-.06-.3-.08-.11-.02-.14-.06-.11-.17Zm-2.83-.09c-.14.29-.27.56-.41.85l2.91,1.67c-.01-.18-.01-.3-.03-.41-.03-.32-.09-.63-.11-.95,0-.15-.1-.28-.24-.32-.66-.26-1.31-.53-1.97-.79-.05-.02-.1-.03-.16-.05Zm-15.79,0c-.05.02-.1.03-.15.04-.69.28-1.36.56-2.06.83-.09.03-.14.12-.14.21-.03.26-.06.52-.08.78-.02.2-.04.4-.06.64l2.89-1.65-.4-.85Zm10.71-.05l-1.24.73c.15.41.31.83.47,1.26l1.25.2s.04-.06.05-.09c.1-.31.2-.63.3-.95.03-.1,0-.22-.08-.28-.22-.24-.44-.48-.65-.72-.04-.05-.07-.1-.1-.15Zm-15.36,0c-.08.01-.13.01-.18.02-.5.12-1,.25-1.5.37-.08.02-.13.08-.15.15-.09.24-.18.47-.27.71-.03.08-.06.17-.09.26l.88.58c.06.04.14.04.2,0,.3-.12.6-.24.91-.36.06-.57.13-1.14.2-1.73Zm25.08-.03c.02.15.04.28.05.41.05.4.1.8.15,1.2.01.08.02.16.12.2.27.1.54.22.81.32.06.02.12.02.18,0,.3-.19.6-.38.91-.58-.12-.33-.24-.64-.35-.95-.03-.09-.1-.15-.2-.17-.15-.03-.3-.08-.45-.11l-1.21-.31Zm-15.35-.03c-.3.32-.59.64-.87.94-.05.04-.07.11-.04.17l.35,1.1s.07,0,.1,0c.34-.06.68-.12,1.02-.17.1-.02.14-.08.17-.16l.36-.93.09-.23c-.42-.19-.82-.44-1.18-.73Zm-8.21-.55l-.56.1v.04l.49.29.08-.42Zm.53-.27s.04,0,.06.01c-.03.29-.3.14-.45.28l-.09.49c.09.05.17.11.26.15.08.04.11.11.04.22l-1.13-.7c-.01-.11-.01-.19.11-.22.4-.08.8-.15,1.2-.24Zm18.76-.21c-.1.3-.19.6-.29.91l2.19.88c-.08-.47-.15-.89-.24-1.31,0-.04-.09-.08-.14-.1-.24-.06-.48-.12-.72-.18l-.81-.2Zm-16.57,0s-.08.01-.13.02c-.45.11-.9.24-1.35.34-.12.01-.22.11-.22.23-.05.33-.11.65-.16.98,0,.07,0,.14,0,.2l2.15-.87c-.09-.31-.19-.6-.28-.9h0Zm12.06-.1l-.87,1.09c.27.3.55.6.82.93.06.08.13.06.21.05l.87-.19c.07-.01.15-.04.22-.05,0-.03,0-.05.01-.08-.02-.35-.04-.69-.06-1.03,0-.09-.06-.16-.14-.19l-.85-.43c-.07-.04-.15-.07-.2-.09Zm-7.56-.07c-.36.18-.72.37-1.08.54-.09.04-.15.13-.14.23-.01.29-.03.59-.05.89v.22c.38.08.76.15,1.12.24.06.01.13-.01.16-.07.14-.15.29-.31.43-.47l.41-.46h0s0,0,0,0h0s-.85-1.12-.85-1.12Zm15.98-.59c.09.49.18.95.27,1.41,0,.09.07.16.15.17.57.14,1.14.28,1.7.42.05.01.09,0,.13-.02.28-.23.55-.47.84-.72-.15-.28-.31-.53-.44-.8-.06-.15-.2-.24-.35-.25-.7-.07-1.4-.15-2.1-.22h-.2Zm-24.39-.01c-.12,0-.22.01-.31.02-.25.02-.49.05-.74.08-.43.05-.87.09-1.3.14-.07,0-.13.03-.18.08-.18.31-.35.62-.53.95.26.23.51.43.74.64.08.08.2.11.3.08.31-.08.63-.16.94-.24l.77-.19c.1-.52.2-1.03.3-1.56Zm20.72-.4c-.06.32-.11.62-.17.92.38.14,1.38.37,1.54.35-.09-.39-.18-.77-.28-1.16l-1.1-.12Zm-17.03,0l-1.1.12c-.08.41-.22.78-.25,1.19l1.52-.38c-.06-.32-.11-.62-.17-.94Zm-2.84-.22l.38.6.84-.38c.02.12-.05.24-.17.27-.19.07-.38.15-.56.24.04.34.34.28.55.37l-.02.12s-.04.02-.05.02l-1.11-.23c-.11-.02-.11-.08-.06-.18l.6.12-.34-.54-.09-.14c-.05-.08-.04-.19.02-.26Zm22.78-.06c.07.05.09.14.04.21-.01.01-.02.03-.04.04-.19.2-.37.4-.56.6-.05.05-.09.12-.12.19l.91-.21.03.15-1.23.3c-.07-.06-.07-.16-.01-.23,0,0,.01-.01.02-.02.19-.2.37-.4.56-.6.05-.05.1-.12.12-.19l-.91.21-.04-.15,1.22-.3Zm-7.16-.13l-.42,1.35,1.09.56c.08.04.14,0,.19-.04.26-.17.52-.33.78-.51.06-.04.11-.08.16-.13-.15-.33-.3-.64-.44-.96-.03-.11-.14-.18-.25-.17-.12,0-.24-.02-.36-.03l-.75-.07Zm-8.54-.07c-.41.04-.83.08-1.25.13-.06.02-.1.06-.13.12-.12.24-.23.48-.33.73-.04.1-.08.2-.12.31l1.03.67,1.21-.6-.41-1.35Zm-4.06-.41h0s0,0,0,0l.08,1.18c.26,1.66,1.01,3.2,2.15,4.42.05.04.09.08.14.12.03-.45.06-.88.07-1.3,0-.13.06-.25.17-.32.14-.09.26-.19.39-.28.07-.05.11-.13.11-.21.01-.33.03-.66.05-.99.01-.08-.03-.15-.1-.19-.3-.19-.6-.39-.91-.58-.05-.03-.09-.06-.14-.1l.42-.95h-.14c-.36.07-.73.12-1.09.18-.08.02-.15,0-.21-.06-.27-.25-.55-.5-.83-.76l-.19-.15h0Zm16.69-.05c-.09.07-.14.11-.19.15-.21.19-.44.37-.64.59-.18.22-.47.31-.74.22-.32-.07-.64-.12-.97-.15l.47,1.03-1.18.77c.02.34.05.67.06.99,0,.1.05.19.14.24.15.1.29.22.44.32.1.06.16.17.15.28.01.39.03.78.05,1.16,0,.05.02.1.03.2.78-.81,1.4-1.77,1.82-2.82.38-.95.57-1.96.56-2.98Zm.22-.25c-.01.34-.02.64-.04.96.34.01.66.1,1.01.09l-.32-1.04h-.65Zm-17.8,0c-.1.34-.2.68-.31,1.06l.97-.1v-.95h-.66Zm1.81-.1c-.07.01-.15.09-.34.29.1.09.19.18.29.26.03.03.07.04.11.03.24-.08.47-.16.7-.25v-.05c-.14-.06-.28-.12-.42-.17-.2-.08-.27-.13-.35-.12Zm14.69,0c-.22.08-.44.16-.72.26l.49.2q.36.15.65-.13s.03-.03.03-.05h0c-.1-.09-.19-.17-.28-.25-.05-.05-.12-.06-.17-.03Zm7.34-.1c-.79.03-1.58.06-2.37.08-.17,0-.34.02-.53.03.13.48.25.94.38,1.41.03.01.07.02.1.02.81.08,1.62.17,2.44.25.07,0,.14-.03.18-.09.18-.21.37-.42.55-.64.04-.05.07-.1.12-.16-.2-.27-.4-.52-.59-.78-.06-.1-.17-.15-.28-.13Zm-29.41,0l-.7.92c.22.25.43.49.63.73.07.1.19.15.3.12.65-.07,1.29-.13,1.94-.19.17-.02.33-.04.49-.06.14-.48.26-.95.39-1.44l-3.05-.1Zm3.84-.3c.3.1.6.19.89.3.18.07.28.27.23.45-.02.09-.05.18-.09.26-.07.16-.24.26-.42.22-.14-.02-.27-.06-.41-.1-.17-.05-.34-.11-.52-.17l.06-.15c.2.06.39.12.58.18.09.03.19.06.29.07.15.03.3-.06.33-.22,0,0,0,0,0,0,.06-.19.02-.32-.15-.39-.15-.06-.3-.11-.45-.16l-.4-.13.06-.16Zm16.36-.6c-.05-.01-.11-.01-.16,0l-1,.28s-.04.02-.06.03c.03.48.06.94.09,1.42l1.29.14.74-1.04c-.27-.26-.52-.5-.77-.74-.04-.04-.09-.07-.14-.08Zm-10.75-.08c-.06,0-.12,0-.17.05-.27.26-.54.53-.81.8,0,.03,0,.05.02.07.21.29.42.58.64.87.04.06.11.09.18.07.22-.02.44-.04.65-.06.19-.02.39-.04.59-.06-.03-.47,0-.94.12-1.4-.42-.12-.82-.24-1.22-.34Zm14.12-.05l-.33.06c.04.31.07.61.1.91h0s.59.01.59.01c-.13-.34-.24-.65-.36-.98Zm-17.57,0l-.35.98h.58c.03-.3.06-.6.1-.92l-.33-.05Zm19.41-.45l.07.13s-.04.03-.06.05c-.24.09-.48.17-.71.27-.23.1-.29.27-.17.49.05.12.17.18.29.15.12-.03.24-.07.36-.11.17-.06.33-.12.51-.18l.06.13s-.03.03-.05.04c-.24.09-.47.18-.71.26-.27.1-.57-.04-.66-.31-.04-.1-.04-.22,0-.32.04-.14.14-.25.28-.29.26-.1.53-.2.8-.3Zm-21.05-.32l1.19.45c.01.1-.06.19-.16.2,0,0,0,0,0,0-.29.06-.58.13-.86.2-.05.01-.09.03-.17.06l.91.35-.05.15-1.18-.45c-.01-.13.05-.18.16-.2.29-.06.58-.13.86-.2.05,0,.09-.03.12-.07l-.85-.33.04-.15Zm25.01-.22c-.05-.02-.11-.02-.17,0-.76.14-1.52.27-2.29.4-.3.05-.6.11-.92.16h0l.44,1.3h.21c.37,0,.75-.02,1.12-.03.57-.02,1.14-.05,1.71-.07.05,0,.11-.02.14-.06.2-.3.39-.6.59-.9-.24-.24-.47-.47-.69-.71-.04-.05-.09-.08-.14-.09Zm-29.12-.02s-.09.02-.13.06c-.24.25-.49.5-.75.76.18.28.36.54.52.81.06.11.17.17.29.16.93.03,1.86.07,2.79.1.05,0,.1,0,.15,0l.45-1.3c-.06-.01-.08-.02-.11-.03l-1.9-.33-1.19-.21s-.09-.02-.13-.02Zm6.26-.12c-.14.28-.27.57-.42.88l.28.05.24-.93s-.09-.01-.1,0Zm16.56,0s-.06,0-.1.04c.07.29.15.59.23.91l.28-.05-.35-.82s-.04-.07-.06-.08Zm-18.43-.3l1.18.49-.07.15-1.18-.49.07-.15Zm14.65-.3s-.07.03-.1.06l-.8.59s-.06.04-.09.05c.22.45.41.87.62,1.31l1.23-.33.31-1.22-1.06-.45s-.08-.01-.11,0Zm-9.12-.06c-.36.15-.73.3-1.1.46.1.38.2.76.29,1.12.02.09.1.11.17.13l.94.26.18.05.62-1.29c-.31-.23-.63-.47-.96-.71-.04-.03-.1-.04-.15-.02Zm2.6-.06c.6.27,1.1.72,1.42,1.28.32.57.48,1.22.47,1.88-1.23-.05-2.21-.45-2.87-1.4l-.26-.44h0s0,0,0,0h0s.1,1.3.1,1.3c.02.44.02.88,0,1.31-.02.44-.07.85-.1,1.28.58-1.18,1.82-1.9,3.13-1.81,0,.57-.12,1.12-.36,1.63-.31.64-.83,1.16-1.47,1.47,1.29-.16,2.6-.16,3.89,0-1.18-.59-1.9-1.82-1.82-3.14,1.39.05,2.48.59,3.12,1.89-.17-1.32-.17-2.66,0-3.98-.27.59-.72,1.08-1.28,1.4-.57.32-1.21.48-1.86.47,0-.65.16-1.3.48-1.87.33-.56.82-1.01,1.41-1.28-1.33.17-2.67.17-4,0Zm-5.86-.08c-.19.25-.27.44-.23.57l.23-.57Zm-11.71-.15c.24.03.45.06.67.09l1.4.21c.07.01.14.03.21.05.45.13.7.42.73.9.03.35-.04.7-.2,1.01-.14.34-.49.54-.85.51-.42-.03-.84-.09-1.26-.14-.27-.03-.54-.08-.82-.12-.06,0-.12-.02-.21-.04l.08-.63,1.33.18.63.09s.03,0,.04,0c.44.04.68-.17.71-.61.04-.26-.13-.51-.4-.56-.02,0-.03,0-.05,0-.37-.06-.74-.12-1.11-.17-.32-.05-.64-.1-.98-.15l.09-.63Zm39.14,0l.09.63-1.33.2c.06.05.1.09.14.12.41.28.81.56,1.22.84.1.06.16.15.18.27.03.21.06.43.09.7l-1.38-1-1.71,1.49c-.02-.15-.04-.26-.06-.38-.07-.5-.15-.37.26-.7.32-.26.65-.52,1-.79-.19-.14-.36-.27-.54-.39-.06-.02-.12-.03-.18-.02-.22.03-.43.06-.65.1-.05,0-.1,0-.15,0l-.08-.62,3.1-.44Zm-11.77-.03c.11.26.22.51.31.76h0s.04,0,.04,0c0-.14-.17-.52-.36-.76Zm1.41-.75c.24,0,.48.12.58.35.02.05.04.1.05.15.07.18,0,.38-.15.5l-.1-.1c.16-.15.17-.39.02-.55-.09-.14-.26-.21-.42-.17-.23.05-.43.15-.5.4-.05.22.06.42.33.59.03-.01.07-.03.11-.04.04-.02.07-.04.11-.06l-.15-.33.13-.07c.08.16.16.32.24.48-.09.04-.17.09-.26.14-.12.09-.28.07-.38-.05-.05-.04-.09-.09-.13-.13-.24-.26-.22-.67.04-.91.07-.07.16-.11.25-.14.08-.04.16-.06.24-.06Zm-18.66-.03l1.14.56c0,.1-.07.18-.16.19,0,0-.01,0-.02,0-.3.03-.59.08-.88.12-.05,0-.09.03-.13.06l.83.41-.06.15-1.14-.55c0-.15.09-.18.21-.19.33-.04.66-.09.99-.17l-.84-.42.07-.15Zm23.57-.11c-.06,0-.12,0-.17.02-.79.26-1.58.51-2.37.77l-.97.32.51,1.22,3.45-.62.48-1.05c-.27-.21-.53-.39-.77-.59-.05-.04-.1-.07-.16-.07Zm-28.2,0s-.09.02-.12.05c-.26.2-.54.4-.82.62h0c.15.32.29.62.42.92.03.09.12.16.22.16.52.09,1.04.19,1.56.28.57.1,1.14.2,1.72.3l.52-1.23-.54-.17-2.82-.91s-.09-.03-.13-.03Zm17.25-.19c-.08,0-.15.04-.18.11-.13.21-.26.42-.4.63-.07.11-.14.22-.19.31l1.04,1,1.02-.76c-.05-.41-.1-.83-.15-1.27h0c-.4-.01-.77-.02-1.13-.03Zm-6.21-.07c-.42.05-.84.02-1.26.09-.05.38-.09.74-.13,1.09-.02.08.02.16.08.2.29.22.59.44.88.66.02.01.04.02.07.03l1.04-.97-.68-1.1Zm22.26-.42c.05.22.1.41.15.62l-3.04.71-.15-.62,3.04-.71Zm-24.72-.35l.05.46.78.36c-.12-.28-.21-.51-.31-.74-.02-.04-.06-.07-.1-.08-.13-.01-.26,0-.41,0Zm10.96-.04l-.47.05-.33.71h0s0,0,0,0h0s.03.03.03.03c.23-.1.45-.2.69-.3.04-.02.07-.06.08-.11.01-.12,0-.25,0-.39Zm-13.85-.15s.05.05.05.07-.03.06-.05.08c-.02.02-.04,0-.06,0-.18,0-.33.12-.37.29-.07.16-.03.34.1.45.05.05.1.09.16.13.34.2.68.04.75-.34.03-.19.02-.2-.21-.31l-.19.3-.12-.07.26-.47c.13.07.24.13.35.2.04.03.07.08.07.14.03.21-.04.43-.18.59-.15.2-.41.28-.65.2-.15-.04-.28-.13-.39-.25-.22-.27-.18-.68.09-.9.03-.03.07-.05.11-.07.09-.03.18-.04.26-.03Zm1.9-.04v.02s-.24.36-.24.36c.11-.11.17-.18.2-.23l.03-.13v-.02s0,0,0,0Zm13.01-.03s-.06.06-.06.07c.13.23.29.43.48.61-.12-.24-.26-.47-.41-.68Zm-12.54-.09c-.82.79-1.36,1.76-1.79,2.8-.37.92-.56,1.91-.54,2.9.07-.05.1-.08.13-.1.28-.25.57-.51.85-.77.08-.09.21-.12.32-.1.26.05.53.09.79.12.05.01.11,0,.15-.03.19-.18.38-.38.56-.56l-.35-1.31,1.26-.54c-.08-.06-.13-.11-.19-.15-.32-.23-.63-.47-.95-.7-.09-.06-.14-.16-.14-.26-.01-.42-.03-.85-.05-1.28h0s-.04-.02-.04-.02Zm3.69-.04s-.04.04-.05.07c-.16.3-.32.6-.49.91-.04.08-.03.17.02.24.18.29.36.59.55.88.03.04.06.07.09.1.4-.23.83-.4,1.28-.51.01-.03.02-.04.02-.05-.07-.37-.13-.75-.2-1.12-.02-.08-.08-.14-.15-.15l-.64-.22-.43-.14Zm4.58-.03l-1.08.4c-.08.03-.1.11-.12.19-.03.18-.06.36-.09.54-.03.18-.07.37-.11.56.48.11.94.3,1.36.55l.71-1.08-.67-1.16Zm3.67-.02c-.03.48-.06.91-.07,1.34,0,.13-.06.24-.17.31-.32.23-.63.45-.94.69-.07.05-.15.08-.15.22l1.24.53c-.01.06-.02.1-.03.14-.08.34-.17.68-.26,1.02-.05.11-.02.24.08.32.09.06.16.14.22.22.09.12.25.17.39.13.26-.05.52-.08.77-.13.1-.02.21.01.28.09.27.26.55.5.83.76.06.04.12.08.2.16h0c-.01-2.17-.88-4.25-2.42-5.79Zm-5.97-.41l-.93.8c.08.43.15.85.22,1.26h1.46c.07-.37.14-.75.21-1.13.02-.08-.02-.16-.08-.2-.19-.15-.38-.31-.57-.47l-.31-.26Zm13.41-.05c-.07,0-.14.01-.2.05-.92.45-1.85.91-2.78,1.35-.15.07-.3.15-.45.23.19.39.37.77.56,1.15.08-.02.13-.03.19-.05.45-.15.9-.29,1.35-.44.62-.2,1.23-.4,1.85-.6.08-.03.16-.04.19-.14.09-.34.2-.67.3-1.01h0c-.06-.04-.12-.07-.17-.11-.21-.12-.44-.23-.64-.36-.06-.04-.12-.06-.19-.07Zm-26.69-.01s-.1,0-.14.03c-.29.17-.59.33-.91.51.1.32.2.62.28.93.02.12.11.21.23.24,1.07.35,2.14.7,3.21,1.05.05.02.11.02.16.04l.57-1.14s-.06-.04-.09-.05l-1.28-.62-1.9-.92s-.09-.05-.13-.05Zm7.54-.34l-.62.82c.09,0,.15.02.17,0,.2-.21.39-.43.59-.66l-.14-.16Zm11.57-.03l-.19.24.05-.03.61.7.13-.11-.6-.8Zm2.14-.26l.1.13-.44.3.37.55.44-.28.1.13-1.06.72-.1-.14.5-.34c-.12-.19-.24-.37-.37-.56l-.5.33-.11-.13,1.06-.71Zm-26.47-.2l2.96,1.02c-.06.19-.11.37-.19.54-.02.05-.11.08-.17.09-.63.15-1.26.29-1.9.43-.06.01-.12.03-.23.06.64.25,1.25.42,1.87.66l-.19.56-2.96-1.02c.06-.18.12-.34.17-.51.03-.08.09-.09.16-.11l1.67-.37.47-.11c-.04-.08-.11-.09-.17-.11l-1.46-.5-.22-.08.18-.57Zm13.59-.52l-.68.8.21.26.78-.56-.31-.5Zm9.92-.02l-.34.53.77.56.24-.28-.67-.81Zm-4.97-.02c-.1.11-.17.2-.24.28-.05.05-.07.13-.04.19.07.18.13.36.2.54.02.05.05.1.08.14l.32-.8-.32-.35Zm18.12-.36c.08.2.15.39.24.6l-2.38.96.58,1.44-.49.2c-.29-.68-.54-1.35-.83-2.04l2.87-1.16Zm-5.77-.02c-.07,0-.15.04-.21.09-.93.63-1.87,1.26-2.81,1.89-.05.04-.1.08-.15.12l.62,1.1c.09-.04.15-.07.23-.1l1.06-.52c.66-.33,1.33-.65,1.99-.98.06-.03.15-.08.16-.14.07-.35.12-.71.18-1.08-.29-.11-.58-.21-.85-.33-.07-.04-.15-.05-.22-.04Zm-24.7-.02s-.08,0-.12.02l-.94.37s0,.07,0,.11c.05.29.1.58.14.88,0,.11.08.2.18.23,1.01.49,2.02.98,3.03,1.48.09.04.18.08.28.13l.64-1.1c-1.04-.7-2.06-1.39-3.08-2.07-.03-.03-.07-.04-.12-.05Zm5.47-.08l1.01.79-.11.13-.47-.36-.41.52.47.37-.1.14-1-.8.1-.13.41.32c.15-.16.27-.33.42-.51l-.4-.34.1-.13Zm6.95-.11c.06.08.09.12.13.16.25.28.51.56.77.84.08.07.11.17.1.27-.07.39-.12.78-.18,1.17-.04.24.11.37.35.28.2-.08.41-.15.61-.23.16-.06.33-.11.51-.17.05.09.09.15.13.23.17.29.33.59.5.88.1.17.32.22.49.12.04-.02.07-.06.1-.09.21-.28.42-.55.62-.83.07-.12.2-.18.33-.18.38,0,.76-.03,1.14-.05.05,0,.09-.01.15-.02h0c-.64-.71-1.93-1.55-3.14-1.95-.84-.28-1.71-.42-2.59-.42Zm-.19-.01c-2.15.03-4.21.89-5.75,2.4.07.01.13.02.2.03.38.02.76.04,1.14.05.11,0,.22.05.28.15.19.28.4.55.6.82.03.05.09.09.15.1.16,0,.32-.02.47-.05.02,0,.03-.05.04-.07l.23-.43.35-.68s.08.02.11.03c.35.12.7.25,1.06.37.23.08.34-.02.3-.25-.05-.36-.11-.72-.17-1.09-.04-.14,0-.3.11-.4.27-.27.52-.56.77-.84.03-.03.05-.07.09-.14Zm6.95-.12l.12.12-1.01.83-.12-.13,1.01-.82Zm-10.83-.24l-.78.83.35.56.84-.45-.42-.93Zm8.03-.03l-.43.97.84.46c.13-.21.24-.4.37-.6l-.78-.82Zm-21.88-.03l2.83,1.32-.27.58-2.84-1.32.28-.59Zm12.04-.66c.05.22.11.43.15.64.02.14.1.27.21.35.09.06.16.14.25.22l-.11.13c-.08-.07-.16-.14-.24-.21-.11-.11-.26-.18-.41-.18-.2-.02-.4-.06-.61-.09.01-.09.1-.16.2-.15.01,0,.02,0,.03,0,.18.03.36.05.57.09-.04-.15-.07-.29-.1-.43-.01-.06-.03-.12-.05-.18-.03-.09.02-.14.12-.19Zm2.9-.31l-.91.84.45,1.03.9-.32c-.15-.51-.29-1.01-.45-1.55Zm5.85-.03c-.15.55-.33,1.06-.45,1.58l.89.33.47-1.06-.9-.85Zm8.23-.01c-.06,0-.12.02-.16.06-.86.77-1.73,1.54-2.59,2.31-.03.03-.06.06-.08.09l.7,1.05s.05-.01.07-.02c1.01-.68,2.01-1.36,3.01-2.04.06-.04.1-.12.09-.2,0-.3,0-.6,0-.91,0-.04,0-.07-.02-.11-.35-.08-.69-.17-1.03-.24Zm-22.33-.01c-.34.08-.68.15-1.04.24v.22c0,.26.02.52,0,.78,0,.11.05.22.15.27.95.64,1.89,1.28,2.84,1.92.06.04.13.08.2.12l.7-1.06c-.13-.12-.24-.23-.36-.33-.77-.69-1.54-1.39-2.31-2.08-.05-.05-.1-.1-.18-.08Zm6.03-.05l-.03.03.24.49.32-.28-.52-.24Zm-.14-.17s.08-.02.14,0c.38.17.77.32,1.15.49-.09.15-.1.15-.22.1-.08-.03-.17-.07-.26-.11l-.38.4c.03.07.07.16.11.24.05.09.04.16-.08.21l-.55-1.23c.03-.05.06-.09.1-.11Zm10.26-.19h0s-.28.29-.28.29c.11.11.21.22.32.32.08.08.2.09.29.01,0,0,0,0,.01-.01.08-.08.08-.2,0-.28,0,0,0,0,0,0l-.34-.32h0s0,0,0,0Zm0-.24c.19.18.37.36.53.57.07.11.07.25-.01.36-.07.11-.2.17-.33.15-.06-.01-.12-.03-.18-.06l-.12.67c-.13-.06-.18-.13-.14-.25.03-.09.03-.18.06-.27.07-.23-.01-.39-.22-.52l-.39.37-.1-.09.89-.93Zm10.94-.18c-.11-.02-.22-.02-.33,0-.35.08-.65.28-.88.56-.12.14-.19.32-.18.51-.02.44.33.82.77.84.07,0,.15,0,.22-.02.38-.08.71-.3.93-.61.25-.38.15-.89-.23-1.14-.09-.06-.2-.1-.3-.12Zm-17.57-.16s-.06.03-.09.04c-.3.25-.6.5-.9.74-.06.05-.08.13-.05.21.14.47.27.95.4,1.42.02.04.03.07.06.11l.91-.2c-.1-.77-.21-1.54-.33-2.33h0Zm3.29-.03c-.11.8-.23,1.57-.34,2.37l.92.19s.03-.05.04-.08c.15-.49.28-.99.43-1.48.03-.09,0-.19-.08-.23-.29-.24-.57-.48-.86-.71-.03-.02-.07-.04-.1-.05Zm8.13-.42c-.11-.02-.22.03-.29.12-.64.77-1.29,1.54-1.93,2.3-.06.07-.11.14-.17.22l.8,1.06,1.15-1.03,1.46-1.32c.07-.05.11-.13.1-.21-.05-.35-.09-.69-.13-1.05-.35-.03-.67-.06-.99-.09Zm-19.49,0c-.34.03-.69.06-1.05.09-.05.36-.09.7-.13,1.03,0,.09.03.18.11.24l2.5,2.25s.09.07.14.11l.8-1.03c-.05-.07-.09-.12-.13-.18-.41-.49-.83-.98-1.24-1.47l-.78-.92c-.05-.07-.1-.13-.21-.12Zm25.57-.03c.31.04.6.18.82.42.37.39.59.85.49,1.4-.02.13-.06.25-.12.36-.33.59-.94.98-1.61,1.02-.22,0-.44-.04-.63-.15-.44-.24-.75-.67-.85-1.16-.12-.58.11-1.04.56-1.39.19-.15.41-.28.64-.38.13-.06.27-.1.41-.12.1-.01.21-.01.31,0Zm-19.68-.11l.85.94c-.06.15-.16.13-.27.1l-.86-.22s-.07-.02-.15-.03l.33.37c.1.12.21.23.32.36l-.11.12-.85-.94c.05-.13.15-.13.25-.11l.88.22s.07.01.15.03c-.24-.27-.45-.5-.66-.74l.12-.11Zm3.96-.5v3.34l.94.06.35-2.53h0s0,0,0,0h0s-.44-.34-.44-.34c-.41-.31-.74-.52-.85-.54Zm-16.07-.02c.12.08,1.87,2.36,2.02,2.61l-.34.55c-1.08-.23-2.14-.51-3.24-.76l.37-.59,2.27.56.03-.04-1.45-1.81.35-.53Zm15.8-.01c-.09.06-.15.1-.21.14-.31.23-.62.47-.93.69-.1.06-.15.17-.12.28.11.74.21,1.48.31,2.22,0,.04.02.08.03.11l.92-.06v-3.38Zm.14-.35c.08,0,.16.11.25.17.82.56,1.61,1.17,2.37,1.81,1.91,1.63,3.56,3.49,4.82,5.67,1.29,2.22,2.19,4.64,2.68,7.15.2,1.02.34,2.05.45,3.08.02.15.03.31.05.49-.07.04-.15.08-.22.11-1.9.89-3.86,1.62-5.92,2.05-1.02.21-2.06.35-3.1.42-1.15.07-2.3.05-3.45-.06-1.07-.1-2.14-.29-3.19-.56-1.71-.43-3.38-1.03-4.98-1.77-.1-.05-.21-.09-.31-.12-.06,0-.1-.06-.09-.12,0,0,0,0,0,0,.04-.35.08-.7.12-1.05.18-1.75.53-3.47,1.06-5.15.86-2.73,2.26-5.25,4.13-7.42,1.3-1.49,2.76-2.84,4.35-4.01.24-.18.49-.36.74-.54.08-.06.16-.17.24-.17Zm-2.57-.03c.09,0,.18.04.26.1l-.07.12c-.12-.08-.26-.09-.39-.03-.23.11-.32.38-.21.61,0,0,0,.01.01.02.03.06.07.12.12.17.15.2.43.24.64.09.05-.04.09-.08.12-.14.15-.22.13-.25-.05-.41l-.28.2c-.07-.04-.12-.08-.05-.15.12-.1.24-.19.37-.29l.17.21c.15.18.15.21.04.41-.04.07-.08.13-.14.19-.18.2-.46.27-.71.17-.27-.12-.44-.39-.45-.69.02-.23.16-.44.36-.54.08-.05.18-.08.27-.07Zm5.33-.05l.2.15-.38,1.03.03.03.93-.57.19.14-.81,1-.13-.1.62-.77c-.06.02-.11.04-.16.07-.22.13-.43.26-.65.4-.08.05-.15.07-.22-.05l.34-.93-.04-.02c-.2.24-.39.48-.6.73l-.13-.1.81-1Zm6.35-.17c-.33.02-.65.03-.96.04-.12,0-.23.06-.29.16-.49.78-.98,1.57-1.47,2.35-.03.04-.05.08-.08.13l.9,1.04c.05-.05.09-.09.12-.12.66-.8,1.33-1.59,1.99-2.39.06-.07.08-.16.05-.25-.05-.16-.09-.33-.14-.49-.05-.16-.08-.3-.13-.47Zm-18.08-.01s-.09,0-.15,0c-.09.32-.16.64-.26.95-.04.1-.01.21.06.29.67.8,1.34,1.6,2.01,2.4.03.05.06.1.09.15l.93-1.06s-.02-.05-.03-.07c-.53-.84-1.05-1.67-1.57-2.51-.04-.07-.11-.11-.19-.11-.3-.01-.59-.03-.89-.05Zm16.23-1.14l-.95.17c-.11,0-.2.08-.24.18-.3.7-.61,1.39-.92,2.09-.02.04-.04.09-.05.14l1.03,1.02s.02-.01.03-.02c.5-.81,1.01-1.61,1.51-2.42.04-.07.04-.16,0-.24-.11-.26-.22-.52-.34-.78-.02-.05-.05-.1-.07-.14Zm-14.55-.01c-.13.3-.25.6-.38.89-.05.11-.04.24.03.33.47.74.93,1.48,1.39,2.23.05.08.1.15.15.23.03-.02.05-.03.08-.05.3-.3.59-.6.89-.91.05-.04.06-.11.03-.17-.07-.16-.14-.32-.21-.48-.25-.57-.51-1.13-.76-1.7-.03-.07-.05-.15-.15-.16-.35-.06-.7-.13-1.06-.2Zm21.05-.62l1.74,1.78-.4.37-.64-.65-1.83,1.76-.44-.45,1.83-1.78-.6-.62.35-.41Zm-27.44-.1l.38.36-1.13,1.19.45.48c.37-.35.7-.74,1.1-1.12l.33.43-1,1.04c.19.2.37.39.57.6l1.19-1.23.39.37-1.65,1.71-2.25-2.18,1.62-1.66Zm8.36-.14c-.16.27-.31.54-.48.8-.08.11-.09.25-.02.37.29.65.58,1.3.87,1.95l.1.18h0s0,0,0,0h0s.05-.02.05-.02c.35-.31.7-.63,1.06-.93.06-.05.09-.13.06-.2-.16-.55-.31-1.1-.47-1.64-.02-.09-.09-.16-.18-.18-.28-.09-.56-.19-.84-.28-.04-.01-.09-.02-.13-.02Zm10.63,0h0c-.06.02-.11.03-.15.05-.26.09-.52.18-.78.26-.12.03-.21.12-.23.24-.14.5-.29,1-.43,1.5-.02.05-.02.11-.04.16l.6.51c.2.17.38.37.6.53.33-.76.65-1.47.97-2.19.02-.05.02-.1,0-.15-.18-.31-.37-.61-.55-.92Zm-5.3-.13h0s-1.5,1-1.5,1c-1.4.94-2.7,2.02-3.89,3.23-.68.67-1.33,1.39-1.92,2.14-.93,1.17-1.75,2.41-2.45,3.73-.77,1.44-1.39,2.97-1.85,4.54-.65,2.23-1.01,4.54-1.06,6.86,0,.16,0,.32,0,.49.14.09.28.19.43.26,2,1.04,4.11,1.84,6.29,2.41,1.57.4,3.17.64,4.78.73.96.05,1.92.04,2.87-.02,1.04-.06,2.07-.19,3.08-.4,2.73-.56,5.36-1.55,7.79-2.92.03-.02.06-.04.09-.06v-.13c-.03-1.18-.14-2.35-.3-3.52-.22-1.52-.58-3.02-1.06-4.48-.79-2.42-1.95-4.7-3.44-6.76-1.85-2.52-4.15-4.68-6.77-6.38l-1.1-.7h0s0,0,0,0Zm11.78-.26l-.95.6c.2.18.41.34.64.49.15-.34.33-.94.32-1.09Zm-8.57-.22c-.33.16-.64.31-.94.48-.06.04-.1.1-.11.16-.05.3-.08.61-.13.92l1.41,1.06c.16-.56.31-1.09.47-1.62.02-.08,0-.16-.06-.21-.15-.19-.31-.38-.47-.57-.06-.07-.11-.14-.18-.21Zm-6.45,0c-.21.26-.41.51-.6.74-.08.08-.11.2-.07.3.15.48.27.96.41,1.44.01.05.03.1.06.19.24-.19.47-.36.69-.54.23-.17.47-.36.71-.54-.05-.33-.09-.66-.13-.99-.01-.08-.07-.14-.14-.16-.18-.09-.36-.19-.55-.28-.12-.06-.25-.11-.37-.17Zm4.32-.31l-.92.64,1.64,1.05c.04-.27.08-.51.11-.75.03-.08,0-.17-.06-.23-.25-.23-.51-.47-.77-.71Zm-2.18,0c-.27.25-.51.48-.76.71-.04.04-.07.09-.07.14.03.28.07.57.11.88l1.64-1.09-.93-.65Zm0-.25l1.1.76,1.09-.76c.07.06.13.11.19.17.2.19.4.38.61.56.21.18.15.2.45.05.26-.13.51-.27.77-.4.05-.03.1-.05.17-.07.29.34.57.68.85,1.03l1.27-.42c.23.38.45.76.69,1.14l1.31-.26c.18.41.36.82.54,1.23l1.33-.07c.12.44.23.86.35,1.29l1.06.09h.11c.15.02.17.03.18.18.05.36.09.71.13,1.07,0,.03,0,.05.02.1l1.29.32v1.34l1.24.49c-.07.43-.14.87-.21,1.32l1.17.66c-.13.43-.26.85-.39,1.28l1.07.82-.56,1.21.94.95-.73,1.12.81,1.06-.88,1.01.63,1.17s-.1.1-.15.15c-.24.21-.48.42-.72.62-.09.06-.12.18-.07.27.12.29.23.58.34.87.03.07.05.15.08.23l-1.11.73c.1.43.19.86.29,1.3l-1.21.57c.03.44.07.88.11,1.34l-1.27.39c-.01.23-.03.45-.04.67-.01.21-.02.43-.03.67l-1.33.22c-.08.43-.17.86-.26,1.32h-1.33c-.15.44-.3.85-.45,1.28l-1.33-.16-.61,1.2-1.29-.35-.77,1.1-.25-.1c-.28-.12-.56-.24-.83-.36-.09-.05-.2-.03-.26.06-.24.26-.48.52-.72.78-.02.03-.04.06-.06.1l-1.18-.69-1.04.84c-.07-.05-.14-.1-.2-.15l-.68-.57c-.15-.12-.15-.12-.31-.03l-.74.45c-.08.05-.15.09-.25.14-.17-.18-.34-.35-.5-.52-.1-.11-.21-.21-.3-.33-.06-.09-.18-.12-.28-.06-.3.14-.62.27-.93.4-.04.02-.09.03-.15.06l-.77-1.09-1.29.34-.62-1.19-1.32.15-.42-1.25-1.35-.05-.27-1.3-1.31-.21-.08-1.34-1.26-.39c-.01-.44.07-.88.09-1.34l-1.21-.57.3-1.3-1.11-.74.45-1.26-1-.88.65-1.17c-.29-.33-.57-.66-.88-1.01.26-.35.53-.7.81-1.07-.24-.36-.48-.73-.73-1.12l.95-.96-.56-1.21,1.07-.81-.39-1.28,1.16-.65c-.02-.43-.15-.86-.19-1.32l1.23-.49v-1.34s1.31-.3,1.31-.3c.05-.38.1-.76.14-1.14.02-.19.03-.19.22-.21.37-.03.74-.06,1.13-.09.12-.43.23-.85.35-1.29l1.34.06.53-1.24,1.32.25.69-1.14,1.27.42.85-1.03,1.19.6.98-.91Zm13.15-.05l.53.42c-.31,1.07-.62,2.14-.94,3.23l-.55-.43.23-.72c-.29-.23-.57-.45-.85-.67-.08-.08-.2-.08-.28,0-.15.11-.32.2-.49.3l-.53-.42,2.89-1.71Zm-22.92-.03c-.08-.02-.17-.01-.25.03-.01,0-.02.01-.03.02-.26.15-.51.33-.77.5l.46.66c.26-.2.51-.37.74-.57.15-.12.18-.33.06-.48,0,0,0,0,0,0-.05-.08-.12-.13-.2-.15Zm-.02-.63c.33-.02.66.15.82.47.03.06.05.13.07.19.06.24.02.49-.13.68-.04.06-.08.11-.14.19.29,0,.57.08.84.2l.78.33c-.21.15-.38.28-.56.39-.06.03-.13.03-.2,0-.21-.07-.41-.16-.6-.24-.11-.04-.23-.08-.34-.13-.28-.14-.61-.07-.81.17l.73,1.06-.53.37c-.6-.86-1.19-1.7-1.78-2.55.04-.04.08-.07.11-.1.36-.25.72-.5,1.08-.76.1-.07.21-.14.33-.19.1-.05.22-.08.33-.09Zm2.77-1.73c.12-.01.24-.01.36,0,.3.05.54.25.66.52l-.55.28s-.03-.02-.05-.03c-.09-.14-.24-.23-.41-.21-.23.02-.44.13-.58.31-.13.18-.05.36.17.38.18,0,.35-.01.52-.04.24-.02.48-.06.71-.07.34-.01.64.19.77.5.17.3.15.67-.06.94-.35.46-.91.71-1.49.65-.37-.02-.6-.28-.81-.6l.53-.3c.05.05.1.1.15.15.32.31.96.17,1.12-.25.08-.15.02-.33-.13-.41-.04-.02-.09-.03-.14-.03-.19,0-.38.03-.57.06-.19.02-.38.06-.57.06-.35.02-.67-.18-.81-.51-.15-.33-.06-.72.22-.95.27-.24.58-.42.93-.46Zm16.12-.06l.57.29-.6,1.21c.13-.04.2-.06.28-.09.41-.15.82-.3,1.23-.47.14-.07.31-.06.44.02.16.1.34.18.55.29-.55.21-1.07.36-1.59.57.08.74.16,1.47.24,2.25l-.74-.36c-.03-.55-.07-1.11-.1-1.69-.21.07-.41.12-.6.2-.07.04-.12.1-.15.17-.12.22-.23.45-.36.7l-.57-.28c.47-.93.94-1.86,1.42-2.79Zm-13.9-.75c.32,1,.64,1.97.96,2.97l-.61.2c-.32-1-.64-1.97-.96-2.97l.6-.2Zm5.24-.07l-.37,1.06h.4c.12,0,.26,0,.4-.02-.09-.37-.23-.72-.43-1.05Zm3.55-.67c.18.02.36.07.53.14.4.18.57.47.55.96l-.59-.04s-.03-.04-.04-.07c-.09-.34-.43-.55-.77-.46-.05.01-.09.03-.13.05-.12.04-.18.17-.14.29.02.04.04.08.08.11.07.05.14.1.22.13.19.08.39.15.59.24.11.05.22.1.32.16.32.18.49.55.41.91-.04.38-.31.69-.68.78-.43.11-.88.05-1.28-.15-.37-.2-.59-.61-.53-1.03h.6s.02.05.02.07c.04.38.39.66.77.61.07,0,.14-.03.2-.06.14-.04.24-.16.26-.3.02-.14-.06-.27-.19-.32-.15-.08-.32-.14-.48-.21-.2-.09-.39-.19-.58-.3-.28-.17-.42-.51-.34-.83.06-.34.33-.6.67-.65.18-.04.36-.05.55-.03Zm-5.63-.06c.04.18.08.33.12.51l-.89.22c.18.83.38,1.66.58,2.52l-.62.15c-.2-.83-.39-1.66-.59-2.51-.3.02-.58.14-.9.18l-.12-.51,2.42-.56Zm1.76-.1h.68c.42,1.01.85,2.04,1.3,3.1h-.7c-.09-.21-.18-.44-.27-.67h-1.25l-.25.7h-.67l1.17-3.14Zm.96-6.76s.06.07.08.11c.59.88,1.33,1.64,2.19,2.25.44.31.95.47,1.45.62,1.33.39,2.67.77,4,1.18.87.26,1.72.61,2.51,1.06.68.37,1.28.89,1.75,1.51.3.39.51.83.63,1.31.12.47.07.97-.14,1.41,0,.03-.02.06-.02.08.04-.03.06-.04.08-.06.45-.43,1.07-.64,1.69-.58,1.01.06,1.88.48,2.66,1.08.54.44,1.04.94,1.47,1.49.6.73,1.16,1.5,1.68,2.29.55.8,1.08,1.6,1.62,2.4.26.38.59.7.97.96.7.48,1.46.86,2.26,1.14.15.05.3.08.46.13-.02.03-.03.06-.05.09-.43.52-.78,1.09-1.06,1.7-.2.42-.37.86-.48,1.31-.09.49-.12,1-.08,1.5.06,1.68.18,3.36.08,5.04-.05.92-.15,1.84-.51,2.71-.26.68-.67,1.28-1.19,1.78-.37.35-.85.58-1.35.65-.25.02-.5,0-.74-.07.05-.02.07-.04.1-.05.6-.22,1.1-.65,1.42-1.21.23-.41.4-.86.49-1.32.16-.72.27-1.46.34-2.19.13-1.19.06-2.38-.02-3.57-.05-.67-.02-1.35,0-2.03,0-.48.09-.96.25-1.41.38-1.13,1.17-2.07,2.22-2.63.09-.04.17-.1.25-.16l-.39.05c-.79.09-1.59-.02-2.32-.34-.81-.34-1.52-.89-2.04-1.6-.25-.32-.49-.64-.71-.97-.36-.53-.7-1.06-1.04-1.6-.75-1.16-1.66-2.22-2.69-3.15-.26-.24-.53-.47-.81-.68-.45-.34-.99-.56-1.55-.64-.32-.04-.65-.01-.97.07l-.17.04c-.01-.14-.02-.27-.03-.39-.08-.52-.31-1.01-.66-1.39-.33-.38-.72-.7-1.16-.94-1.49-.89-3.12-1.54-4.81-1.94-.89-.19-1.76-.46-2.6-.8-.55-.22-1.06-.54-1.5-.93-.8-.72-1.33-1.69-1.49-2.76-.01-.06-.02-.13-.03-.19,0-.01-.02-.02-.01-.01-.07.3-.13.62-.23.92-.38,1.22-1.26,2.23-2.42,2.78-.75.35-1.54.63-2.35.82-.8.21-1.62.39-2.4.67-1.14.42-2.24.94-3.28,1.57-.42.25-.79.58-1.08.97-.32.41-.51.92-.53,1.45,0,.04,0,.08-.01.13,0,.01-.01.02-.03.04-.02,0-.05,0-.07,0-.65-.21-1.27-.1-1.88.15-.44.19-.85.45-1.2.78-.76.67-1.47,1.41-2.11,2.2-.26.33-.51.68-.74,1.03-.42.64-.83,1.28-1.25,1.92-.34.52-.73,1.01-1.17,1.45-1.03,1.02-2.27,1.45-3.71,1.36-.16-.02-.32-.02-.49-.02.05.03.1.06.15.09,1.43.79,2.25,2,2.47,3.61.12.86.08,1.73.03,2.6-.03.49-.06.99-.09,1.48-.04,1.09.04,2.17.24,3.24.08.52.2,1.04.35,1.55.15.47.4.91.74,1.27.27.29.59.51.96.65.15.06.17.09.08.22-.35.55-.49,1.22-.39,1.87.05.4.16.79.32,1.16.65,1.56,1.54,3.01,2.62,4.31.48.57.93,1.15,1.38,1.74.42.54.76,1.15.98,1.79.4,1.17.3,2.46-.26,3.56-.03.07-.07.14-.1.21l.06.06c.05-.08.11-.15.17-.22.74-.73,1.71-1.19,2.74-1.3.74-.08,1.49,0,2.19.24.65.2,1.3.44,1.94.68.84.32,1.66.66,2.54.88.96.23,1.94.4,2.92.48.57.06,1.15,0,1.69-.2.44-.16.83-.44,1.12-.8.03-.03.05-.07.08-.1,0,0,.02-.01.06-.03.01.02.03.05.05.08.51.65,1.19.95,1.99,1.03.59.04,1.19.01,1.77-.09,1.09-.14,2.17-.39,3.21-.76.65-.24,1.3-.5,1.95-.76.75-.31,1.53-.53,2.34-.66,1.11-.17,2.24.08,3.18.7.27.2.54.41.78.64.05.05.1.1.14.15l.04-.03s-.02-.04-.03-.06c-.76-1.43-.79-2.87-.09-4.33.14-.29.31-.57.5-.83.51-.75,1.07-1.46,1.66-2.14.57-.65,1.06-1.36,1.47-2.12.33-.63.67-1.26.99-1.89.32-.61.47-1.29.44-1.98,0-.47-.16-.92-.43-1.31-.02-.02-.03-.05-.05-.1.04,0,.09.01.13.02.61.27.96.76,1.16,1.38.23.8.22,1.65-.02,2.44-.18.63-.44,1.23-.77,1.79-.76,1.23-1.6,2.41-2.52,3.53-.37.46-.72.94-1.1,1.4-.55.69-.9,1.51-1.02,2.38-.06.42-.12.85-.15,1.28-.02.26,0,.52,0,.79-.08-.03-.15-.07-.24-.1-.99-.35-2.04-.51-3.1-.48-.36.02-.72.1-1.06.22-.97.35-1.93.71-2.9,1.06-1.02.39-2.06.7-3.12.93-.45.09-.9.15-1.36.19-.76.05-1.52-.07-2.22-.36-.38-.15-.73-.38-1.03-.66-.32-.3-.54-.69-.62-1.12-.02.03-.04.06-.06.1-.09.45-.34.85-.7,1.13-.53.43-1.16.72-1.84.84-.84.17-1.67.09-2.5-.06-1.16-.25-2.29-.59-3.4-1.02-.86-.3-1.71-.6-2.56-.93-.74-.28-1.54-.37-2.33-.27-.64.07-1.28.21-1.9.41-.12.04-.24.09-.37.14v-.72c-.02-.6-.1-1.2-.23-1.78-.16-.71-.47-1.38-.92-1.95-.96-1.24-1.91-2.49-2.85-3.74-.42-.56-.79-1.16-1.09-1.78-.38-.74-.6-1.56-.64-2.4-.03-.48.05-.96.22-1.41.19-.55.59-.99,1.11-1.24-.24.01-.48.01-.72,0-.46-.06-.9-.27-1.24-.6-.77-.67-1.2-1.54-1.45-2.51-.18-.73-.28-1.47-.29-2.22-.04-1.37,0-2.74.07-4.11.03-.57.02-1.14.02-1.71-.01-.34-.08-.67-.21-.99-.29-.82-.7-1.59-1.21-2.3-.07-.1-.15-.2-.25-.31.09-.03.17-.05.25-.07.97-.3,1.89-.76,2.71-1.36.3-.23.56-.51.77-.83.52-.77,1.05-1.54,1.56-2.32.54-.81,1.12-1.6,1.73-2.36.43-.54.91-1.03,1.44-1.46.68-.57,1.5-.94,2.38-1.07.37-.06.75-.04,1.11.06.32.07.61.24.84.47.03.03.07.06.1.08-.07-.21-.14-.39-.18-.58-.09-.45-.04-.92.15-1.35.24-.58.6-1.11,1.06-1.54.63-.62,1.4-1.02,2.2-1.36,1.06-.44,2.15-.8,3.26-1.1.83-.24,1.65-.48,2.48-.71.57-.16,1.11-.44,1.56-.82.74-.59,1.38-1.29,1.89-2.08Z" style="fill: #010101; fill-rule: evenodd; stroke-width: 0px;"/>
      </g>
    </g>
    <rect width="368.23" height="100" style="fill: none; stroke-width: 0px;"/>
  </g>
</svg>